<?xml version="1.0" encoding="UTF-8"?><svg id="Layer_1" xmlns="http://www.w3.org/2000/svg" viewBox="0 0 4735.26 1807.94"><defs><style>.cls-1{fill:#ffffff;}</style></defs><path class="cls-1" d="M4412.19,1731.21c-46.56,0-93.19-2.16-139.66-6.49-108.92-10.15-216.5-32.17-319.77-65.45-48.16-15.52-96.97-34.42-149.21-57.77-44.03-19.68-91-42.8-143.61-70.67-23.01-12.19-46.31-24.79-68.85-36.96-68.24-36.87-138.81-75-210.81-107.28-108.8-48.78-209.13-77.05-306.73-86.42-54.48-5.24-111.24-5.73-173.52-1.5-52.22,3.54-108.62,10.49-172.4,21.24-65.11,10.97-130.93,24.72-194.59,38.02-70.99,14.83-144.4,30.16-217.08,41.7-81.51,12.94-153.48,19.63-220.01,20.45-4.84,.06-9.68,.09-14.48,.09-93.58,0-179.71-11.3-256.24-33.65-45.12-13.17-87.38-30.38-125.61-51.15-41-22.27-78.37-49.19-111.08-80.01-23.77-22.4-45.93-47.6-67.37-71.97-38.94-44.27-79.2-90.05-130.82-121.07-106.17-63.8-226.25-27.25-288.38,.22-69.14,30.56-130.23,76.82-189.32,121.56-25.08,18.99-51.01,38.62-77.17,56.76-38.69,26.83-78.08,49.16-117.07,66.39-41.91,18.52-85.1,31.91-128.39,39.82-40.51,7.4-82.35,10.81-124.36,10.12-41.45-.67-83.23-5.33-124.19-13.83-40.89-8.49-81.09-20.85-119.46-36.73-38.78-16.04-75.85-35.75-110.17-58.56-34.63-23.01-67.1-50.16-96.53-80.7-28.24-29.31-54.47-62.56-77.94-98.82-9.9-15.3-19.71-31.32-29.19-46.81-36.12-59.02-73.47-120.05-128.69-163.1-74.71-58.25-178.47-65.42-258.2-17.84-78.79,47.01-121.75,146.92-102.16,237.56l-.34,.07c-4.81-22.25-5.98-45.35-3.48-68.68,2.44-22.76,8.3-45.1,17.4-66.39,9.14-21.36,21.25-40.98,36.02-58.34,15.21-17.88,32.83-32.86,52.38-44.52,39.66-23.67,85.32-34.37,132.03-30.94,22.69,1.67,45.01,6.65,66.34,14.82,21.67,8.3,41.93,19.73,60.21,33.99,55.27,43.09,92.63,104.15,128.77,163.19,9.48,15.49,19.28,31.51,29.19,46.8,23.46,36.24,49.67,69.48,77.9,98.77,29.41,30.52,61.87,57.66,96.47,80.66,34.31,22.8,71.35,42.49,110.11,58.53,38.36,15.87,78.53,28.22,119.4,36.71,40.94,8.5,82.7,13.15,124.13,13.83,41.99,.68,83.8-2.72,124.29-10.11,84.24-15.39,164.48-50.11,245.32-106.15,26.15-18.13,52.08-37.76,77.16-56.75,59.1-44.75,120.21-91.02,189.39-121.6,23.73-10.49,47.71-18.81,71.28-24.74,25.19-6.33,50.06-9.96,73.93-10.78,53.16-1.83,101.44,10.06,143.49,35.32,51.66,31.04,91.94,76.84,130.9,121.13,21.43,24.36,43.59,49.56,67.34,71.94,63.29,59.63,142.87,103.73,236.55,131.08,80.42,23.48,171.48,34.76,270.62,33.54,66.51-.82,138.46-7.51,219.96-20.44,72.67-11.54,146.08-26.87,217.07-41.7,63.66-13.3,129.48-27.05,194.6-38.02,63.8-10.75,120.21-17.7,172.44-21.25,62.3-4.23,119.07-3.74,173.57,1.5,97.64,9.38,198.01,37.66,306.84,86.45,72.01,32.28,142.58,70.42,210.83,107.29,22.54,12.18,45.84,24.77,68.85,36.96,52.6,27.87,99.56,50.99,143.59,70.66,52.23,23.34,101.02,42.23,149.18,57.75,147.81,47.64,304.09,71.87,459.97,71.87,62.26,0,124.42-3.86,186-11.64,51.93-6.56,103.86-15.98,154.34-28l.08,.34c-50.49,12.02-102.43,21.44-154.38,28-61.72,7.8-124.15,11.7-186.7,11.7Z"/><path class="cls-1" d="M4444.62,1671.22c-80.19,0-160.08-5.64-238.88-16.89-75.75-10.79-150.58-26.85-222.41-47.73-59.8-17.37-121.27-39.77-187.92-68.48-33.42-14.39-68.37-30.44-106.86-49.08-27.12-13.14-54.49-27.02-80.96-40.43-64.81-32.85-131.82-66.81-201.25-93.23-35.99-13.7-74.12-25.32-110.99-36.56-8.33-2.54-16.94-5.16-25.41-7.78-42.14-12.97-80.12-24.53-118.3-34.65-20.01-5.38-38.39-9.95-56.2-13.95-9.84-2.23-19.02-4.18-28.06-5.95-8.9-1.74-16.18-3.07-22.91-4.18-39.69-6.56-73.4-9.5-106.12-9.25-34.12,.26-69.84,4.19-115.81,12.74-22.09,4.11-43.93,8.93-62.39,13.1-11.33,2.56-22.81,5.41-33.9,8.17-11.54,2.87-23.48,5.83-35.28,8.48-38.87,8.72-78.4,17.91-116.63,26.8-105.99,24.65-215.58,50.14-324.2,68.62-67.57,11.5-128.32,18.31-185.72,20.81-17.31,.76-34.4,1.14-51.22,1.14-74.88,0-144.76-7.53-208.35-22.49-46.56-10.96-90.21-26.06-129.75-44.9-42.44-20.22-81.16-45.24-115.07-74.34-23.88-20.43-46.24-43.54-67.86-65.88-15.92-16.46-32.39-33.47-49.36-49.32-28.99-27.08-55.02-46.48-81.91-61.05-24.24-13.19-50.86-22.16-79.13-26.68-28.64-4.64-59.46-4.75-91.59-.33-29.34,4.04-59.95,11.86-91.01,23.26-8.77,3.22-17.67,6.76-26.45,10.53-51.06,21.91-97.8,51.36-136.78,77.27-16.65,11.07-33.28,22.46-49.36,33.48-26.9,18.42-54.71,37.48-82.34,54.78-79.66,49.6-157.09,79.04-236.7,90-32.09,4.39-65.15,6.13-98.27,5.18-62.54-1.83-124.38-13.02-183.81-33.26-60.65-20.65-116.9-50.1-167.2-87.54-61.96-46.12-115.55-107.16-163.83-186.59-6.91-11.38-13.73-22.99-21.3-35.9l-1.25-2.13c-37.62-64-76.52-130.17-136.2-176.41-5.03-3.9-10.28-7.64-15.6-11.13-37.49-24.56-80.84-38.12-125.37-39.23-43.05-1.07-85.25,9.71-122.04,31.16-80.28,46.91-124.64,146.53-105.47,236.89l-.45,.1c-4.73-22.31-5.74-45.46-2.99-68.8,2.68-22.72,8.83-45.02,18.28-66.26,9.46-21.26,21.93-40.8,37.06-58.08,15.55-17.76,33.5-32.65,53.34-44.24,36.87-21.49,79.15-32.29,122.29-31.22,44.61,1.11,88.05,14.7,125.61,39.31,5.33,3.49,10.59,7.25,15.63,11.15,59.75,46.29,98.67,112.51,136.31,176.54l1.25,2.13c7.57,12.91,14.39,24.52,21.3,35.9,48.24,79.38,101.79,140.37,163.71,186.46,99.58,74.13,224.15,116.99,350.75,120.71,33.1,.95,66.14-.79,98.2-5.17,79.55-10.95,156.91-40.37,236.52-89.94,27.61-17.3,55.42-36.35,82.32-54.77,16.08-11.02,32.71-22.41,49.37-33.48,39-25.92,85.76-55.38,136.85-77.31,8.78-3.77,17.69-7.31,26.47-10.54,31.09-11.41,61.74-19.25,91.11-23.29,32.18-4.43,63.04-4.32,91.72,.33,28.32,4.52,54.99,13.52,79.27,26.73,26.93,14.59,52.98,34.01,82.01,61.12,16.98,15.85,33.45,32.88,49.38,49.34,21.61,22.34,43.96,45.43,67.82,65.85,65.59,56.29,147.89,96.38,244.62,119.14,77.84,18.31,165.13,25.49,259.45,21.33,57.38-2.5,118.11-9.31,185.66-20.8,108.6-18.48,218.19-43.97,324.17-68.61,38.23-8.89,77.75-18.08,116.63-26.81,11.8-2.65,23.73-5.61,35.27-8.48,11.1-2.76,22.57-5.61,33.91-8.17,18.46-4.17,40.31-8.99,62.41-13.1,46-8.56,81.74-12.49,115.89-12.75,32.74-.25,66.49,2.69,106.2,9.25,6.73,1.11,14.01,2.44,22.92,4.18,9.04,1.77,18.23,3.72,28.08,5.95,17.81,4.01,36.2,8.57,56.21,13.96,38.18,10.12,76.17,21.68,118.32,34.65,8.47,2.61,17.08,5.24,25.41,7.78,36.88,11.24,75.02,22.87,111.02,36.57,69.45,26.43,136.47,60.4,201.29,93.25,26.47,13.42,53.84,27.29,80.96,40.43,38.48,18.64,73.43,34.69,106.84,49.07,66.64,28.7,128.09,51.09,187.87,68.46,71.81,20.88,146.61,36.93,222.34,47.71,131.48,18.78,266.01,21.91,399.87,9.31,9.08-.85,18.26-1.79,27.26-2.78,52.26-5.74,104.38-13.93,154.91-24.34l.09,.45c-50.54,10.41-102.68,18.6-154.95,24.35-9.01,.99-18.19,1.93-27.27,2.79-53.67,5.05-107.45,7.57-161.1,7.57Z"/><path class="cls-1" d="M4476.97,1611.2c-80.92,0-161.02-4.94-239.52-14.8-76.55-9.55-151.76-23.84-223.56-42.47-60.35-15.63-122.2-35.88-189.06-61.9-33.8-13.14-69.02-27.79-107.68-44.78-29.01-12.77-58.25-26.55-86.53-39.87-63.65-29.99-129.46-61.01-198.23-83.21-27.25-8.8-56.11-16.23-84.02-23.42-22.24-5.73-45.24-11.65-67.79-18.34-36.87-10.9-73.15-22.83-108.24-34.36-7.1-2.33-14.17-4.66-21.2-6.96l-4.96-1.62c-19-6.22-36.94-12.1-55.18-17.73-11-3.43-20.75-6.34-29.82-8.91-7.66-2.17-15.91-4.46-24.39-6.55-44.9-11.1-80.47-16.11-115.34-16.26-.49,0-.98,0-1.47,0-46.67,0-91.25,9.95-124.99,18.65-23.22,5.99-46.34,12.99-66.73,19.16-10.2,3.09-20.5,6.5-30.47,9.8-14.19,4.7-28.85,9.56-43.52,13.58-119.34,32.76-276.9,74.43-437.26,106.19-67.01,13.27-127.24,21.81-184.13,26.11-93.25,7.11-179.86,3.18-257.42-11.7-95.93-18.42-178-53.66-243.94-104.75-23.99-18.47-46.54-39.48-68.35-59.79-16.04-14.95-32.63-30.4-49.69-44.75-29.14-24.54-55.21-41.99-82.04-54.94-23.98-11.67-50.5-19.39-78.84-22.95-54.65-6.86-116.06,1.86-182.51,25.93-8.81,3.19-17.76,6.68-26.62,10.37-50.95,21.22-98.08,48.96-138.26,73.3-13.42,8.13-26.81,16.38-39.75,24.36-31.77,19.58-61.78,38.07-92.46,55.07-38.15,21.14-74.52,37.32-111.17,49.45-39.04,12.92-77.23,20.88-116.78,24.35-30.25,2.59-61.4,2.66-92.59,.22-59.25-4.71-117.2-18.19-172.23-40.06-57-22.66-109.34-53.75-155.56-92.41-29.61-24.77-56.97-53.54-83.62-87.95-23.66-30.54-46.41-65.12-69.56-105.7-5.15-9.06-10.38-18.42-15.44-27.47-1.75-3.13-3.5-6.27-5.26-9.41-40.81-72.51-79.43-136.27-138.92-182.09-5.13-3.95-10.48-7.75-15.9-11.29-38.21-24.94-82.31-38.82-127.54-40.13-43.74-1.27-86.75,9.41-124.39,30.86-20.09,11.5-38.32,26.25-54.16,43.85-15.46,17.17-28.24,36.58-38,57.68-9.78,21.15-16.21,43.35-19.11,65.97-2.99,23.29-2.15,46.41,2.5,68.73l-.56,.12c-4.66-22.38-5.5-45.57-2.5-68.92,2.91-22.68,9.36-44.94,19.16-66.14,9.78-21.16,22.6-40.61,38.09-57.82,15.89-17.65,34.16-32.44,54.31-43.97,37.74-21.5,80.86-32.2,124.69-30.93,45.34,1.31,89.55,15.22,127.84,40.22,5.44,3.55,10.8,7.36,15.94,11.32,27.89,21.48,53.66,49.03,78.78,84.2,22.25,31.15,41.21,64.16,60.29,98.06,1.76,3.14,3.51,6.28,5.26,9.42,5.06,9.05,10.29,18.42,15.44,27.47,48.71,85.41,97.34,146.9,153.05,193.5,46.17,38.62,98.46,69.68,155.41,92.32,54.98,21.85,112.87,35.32,172.07,40.02,31.15,2.44,62.27,2.36,92.5-.22,75.67-6.62,150.15-30.74,227.72-73.73,30.66-17,60.67-35.49,92.43-55.06,12.95-7.98,26.33-16.23,39.76-24.36,40.2-24.35,87.35-52.11,138.34-73.34,8.86-3.69,17.83-7.18,26.64-10.37,66.54-24.1,128.04-32.83,182.78-25.96,28.4,3.56,54.98,11.3,79.02,23,26.88,12.97,52.99,30.45,82.16,55.02,17.07,14.36,33.66,29.82,49.71,44.77,21.8,20.31,44.34,41.3,68.31,59.76,65.87,51.03,147.86,86.24,243.69,104.64,77.51,14.86,164.06,18.8,257.26,11.69,56.87-4.29,117.08-12.83,184.07-26.1,160.35-31.76,317.89-73.43,437.22-106.19,14.65-4.02,29.31-8.88,43.49-13.57,9.97-3.3,20.27-6.72,30.48-9.81,20.4-6.18,43.52-13.17,66.76-19.17,34.12-8.8,79.34-18.88,126.6-18.67,34.91,.15,70.52,5.17,115.47,16.28,8.48,2.1,16.74,4.39,24.4,6.56,9.07,2.57,18.83,5.49,29.83,8.92,18.25,5.63,36.19,11.51,55.19,17.73l4.96,1.62c7.03,2.3,14.1,4.62,21.2,6.96,35.08,11.53,71.36,23.46,108.22,34.36,22.53,6.68,45.53,12.6,67.77,18.33,27.92,7.19,56.78,14.62,84.05,23.43,68.81,22.22,134.64,53.24,198.3,83.24,28.27,13.32,57.51,27.1,86.52,39.87,38.65,16.98,73.86,31.63,107.66,44.77,66.85,26.01,128.67,46.25,189,61.88,71.77,18.62,146.96,32.9,223.48,42.45,130.81,16.43,266.1,19.19,402.1,8.2,9.09-.73,18.31-1.54,27.4-2.4,52.57-4.92,104.88-11.88,155.48-20.68l.1,.57c-50.61,8.81-102.94,15.77-155.52,20.69-9.1,.86-18.32,1.66-27.41,2.4-54.42,4.4-108.75,6.59-162.7,6.59Z"/><path class="cls-1" d="M4509.12,1551.17c-81.74,0-161.99-4.24-239.95-12.69-77.44-8.31-153.04-20.83-224.7-37.21-60.95-13.88-123.16-31.98-190.2-55.32-34.21-11.9-69.7-25.13-108.5-40.47-30.31-12.01-60.85-25.26-90.37-38.07-63.15-27.4-128.44-55.73-196.94-74.44-25.17-6.88-51.79-12.51-77.53-17.96-29.46-6.24-59.92-12.69-89.68-21.22-50.43-14.4-99.36-32.34-140.57-47.99-12.3-4.67-24.57-9.44-36.44-14.06-9.09-3.53-18.49-7.19-27.65-10.7-12.67-4.9-22.4-8.56-31.57-11.88-7.77-2.8-16.83-6.04-25.86-8.93-32.79-10.48-76.58-22.6-124.55-23.28-51.15-.72-98.01,12.01-137.09,24.56-22.35,7.18-44.53,15.39-65.99,23.34l-5.09,1.88c-10.15,3.76-20.38,7.9-30.27,11.9-15.75,6.37-32.04,12.96-48.51,18.23-133,42.57-278.92,81.92-433.71,116.97-66.45,15.05-126.17,25.32-182.55,31.4-92.14,10.05-178.02,9.36-255.26-2.05-94.61-14-176.39-44.37-243.06-90.26-23.97-16.49-46.63-35.31-68.55-53.5-16.26-13.5-33.07-27.45-50.31-40.38-29.02-21.79-55.13-37.31-82.17-48.83-24.01-10.23-50.44-16.7-78.55-19.23-53.79-4.84-115.17,4.9-182.43,28.93-8.84,3.16-17.85,6.59-26.79,10.2-50.56,20.42-97.94,46.41-139.75,69.34-7.37,4.04-14.68,8.07-21.93,12.06-38.38,21.14-74.64,41.11-110.79,58.55-37.52,18.09-72.92,31.5-108.23,40.99-37.23,10-73.53,15.43-110.97,16.6-28.4,.79-57.63-.8-86.91-4.74-55.92-7.64-109.98-23.42-160.67-46.9-53.29-24.69-101.71-57.41-143.91-97.24-26.92-25.42-52.17-55.38-77.19-91.61-21.16-30.64-41.92-65.31-65.34-109.1-2.85-5.36-5.71-10.75-8.58-16.18-3.75-7.1-7.64-14.43-11.52-21.7-36.25-67.29-76.95-137.05-140.39-185.64-5.22-4-10.68-7.86-16.2-11.45-38.93-25.33-83.78-39.51-129.72-41.03-44.42-1.46-88.25,9.11-126.74,30.56-40.29,22.58-73.72,58.43-94.12,100.95-10.12,21.09-16.84,43.24-19.98,65.81-3.23,23.28-2.56,46.43,2.01,68.8l-.68,.14c-4.58-22.45-5.26-45.68-2.02-69.04,3.15-22.64,9.89-44.85,20.04-66.01,10.1-21.06,23.27-40.42,39.13-57.57,16.23-17.53,34.82-32.23,55.27-43.69,38.61-21.51,82.56-32.11,127.1-30.64,22.84,.75,45.61,4.67,67.67,11.65,22.05,6.98,43.05,16.9,62.39,29.48,5.54,3.6,11.01,7.47,16.24,11.48,63.55,48.67,104.3,118.5,140.58,185.86,3.88,7.27,7.77,14.6,11.52,21.7,2.87,5.42,5.72,10.82,8.58,16.18,23.4,43.77,44.15,78.42,65.29,109.04,24.99,36.19,50.21,66.12,77.1,91.5,42.14,39.79,90.5,72.46,143.72,97.12,50.63,23.46,104.62,39.22,160.47,46.84,29.23,3.93,58.43,5.52,86.79,4.73,37.38-1.17,73.63-6.59,110.81-16.58,35.26-9.47,70.63-22.86,108.11-40.94,36.14-17.43,72.38-37.39,110.76-58.53,7.25-3.99,14.56-8.02,21.93-12.06,41.82-22.94,89.22-48.94,139.82-69.37,8.95-3.61,17.97-7.05,26.81-10.21,67.35-24.07,128.83-33.81,182.72-28.97,28.19,2.53,54.69,9.02,78.76,19.28,27.09,11.54,53.25,27.09,82.32,48.91,17.25,12.93,34.07,26.89,50.34,40.4,21.91,18.18,44.56,36.99,68.5,53.46,66.58,45.83,148.26,76.16,242.77,90.14,77.18,11.4,163,12.09,255.09,2.05,56.36-6.08,116.05-16.35,182.47-31.39,154.77-35.04,300.67-74.39,433.65-116.95,16.45-5.26,32.72-11.85,48.46-18.21,9.9-4,20.13-8.14,30.29-11.9l5.09-1.88c21.46-7.95,43.65-16.17,66.02-23.35,39.14-12.57,86.05-25.31,137.31-24.59,48.06,.68,91.91,12.82,124.75,23.31,9.05,2.89,18.11,6.13,25.89,8.94,9.17,3.32,18.91,6.98,31.58,11.88,9.16,3.51,18.56,7.17,27.65,10.7,11.87,4.61,24.14,9.38,36.43,14.05,41.2,15.65,90.11,33.58,140.51,47.97,29.73,8.52,60.18,14.97,89.63,21.21,25.75,5.45,52.38,11.09,77.57,17.97,68.55,18.72,133.87,47.06,197.03,74.47,29.52,12.81,60.05,26.05,90.35,38.06,38.79,15.33,74.27,28.57,108.47,40.46,67.02,23.33,129.21,41.42,190.13,55.3,71.64,16.37,147.21,28.88,224.62,37.19,77.93,8.45,158.17,12.69,239.88,12.69,54.26,0,109.14-1.87,164.46-5.6,9.15-.62,18.42-1.29,27.55-2.01,52.85-4.1,105.36-9.83,156.05-17.03l.1,.68c-50.71,7.2-103.22,12.93-156.09,17.03-9.13,.72-18.4,1.39-27.55,2.01-55.33,3.74-110.25,5.6-164.51,5.6Z"/><path class="cls-1" d="M4540.97,1491.14c-82.75,0-163.04-3.53-240.08-10.58-78.46-7.07-154.45-17.82-225.85-31.95-61.59-12.13-124.18-28.08-191.34-48.74-34.65-10.64-70.41-22.47-109.32-36.17-31.4-11.09-63.05-23.6-93.65-35.7-62.9-24.87-127.94-50.58-196.22-66.24-24.48-5.61-49.16-9.86-75.29-14.36-35.29-6.07-71.78-12.35-107.33-22.25-45.57-12.63-93.77-30-151.71-54.66-19.99-8.51-39.59-17.34-58.55-25.88-3.17-1.43-6.34-2.86-9.49-4.28-10-4.54-21.65-9.81-33.33-14.85-8.69-3.74-17.97-7.7-27.34-11.3-24.07-9.25-44.26-15.79-63.55-20.55-24.48-6.05-47.44-9.23-70.21-9.74-24.75-.55-50.01,2.22-77.22,8.47-21.23,4.88-43.63,11.87-70.5,22-22.43,8.46-44.59,18.01-66.02,27.24-3.13,1.35-6.26,2.7-9.39,4.05-10.39,4.47-20.83,9.36-30.92,14.1-17.04,7.99-34.65,16.25-52.66,22.77-148.15,53.63-300.58,94.67-430.15,127.74-65.9,16.82-125.09,28.83-180.97,36.7-91.03,12.96-176.18,15.52-253.1,7.6-93.56-9.67-175.04-35.16-242.18-75.76-24.03-14.53-46.86-31.22-68.93-47.36-16.41-12-33.38-24.41-50.74-35.85-29.05-19.2-55.2-32.77-82.31-42.72-23.89-8.77-50.22-13.99-78.27-15.5-27.95-1.51-58.45,.77-90.67,6.78-28.69,5.35-59.53,13.81-91.68,25.15-8.86,3.13-17.93,6.5-26.96,10.04-43.73,17.12-84.77,37.44-124.45,57.08-5.62,2.78-11.22,5.55-16.78,8.29-47.77,23.54-90.77,44.43-133.24,61.79-69.18,28.27-131.51,41.65-194.73,41.65-5.23,0-10.46-.09-15.71-.27-26.12-.91-53.45-4.17-81.22-9.7-52.52-10.61-102.69-28.71-149.12-53.79-49.52-26.75-94.01-61.08-132.24-102.03-24.26-25.99-47.41-57.16-70.77-95.3-23.07-37.66-43.83-77.99-61.1-112.47l-1.88-3.78c-5.7-11.45-11.6-23.3-17.61-35.07-35.78-69.39-77.74-140.34-141.86-189.18-5.32-4.06-10.87-7.97-16.5-11.61-39.65-25.71-85.26-40.21-131.89-41.92-45.1-1.65-89.74,8.81-129.09,30.26-40.93,22.47-75.05,58.12-96.07,100.37-10.46,21.04-17.47,43.12-20.84,65.65-3.48,23.28-2.97,46.45,1.52,68.88l-.79,.16c-4.51-22.52-5.02-45.79-1.53-69.16,3.38-22.61,10.42-44.78,20.92-65.89,10.42-20.96,23.94-40.24,40.17-57.31,16.56-17.42,35.48-32.02,56.23-43.42,39.48-21.52,84.27-32.01,129.51-30.36,23.23,.85,46.41,4.92,68.9,12.08,22.4,7.13,43.73,17.22,63.4,29.97,5.64,3.66,11.21,7.57,16.55,11.65,29.63,22.56,56.45,51.13,81.99,87.34,24.38,34.56,44.06,71.01,60.1,102.11,6.02,11.78,11.91,23.63,17.62,35.08l1.88,3.78c17.26,34.47,38.02,74.78,61.07,112.41,23.33,38.09,46.44,69.22,70.67,95.17,74.37,79.67,171.52,133.47,280.93,155.58,27.73,5.52,55.01,8.78,81.09,9.68,68.55,2.38,135.31-10.75,210.11-41.32,42.44-17.35,85.43-38.24,133.19-61.77,5.56-2.74,11.15-5.51,16.78-8.29,39.7-19.65,80.75-39.97,124.52-57.11,9.04-3.54,18.12-6.92,26.98-10.05,32.19-11.35,63.08-19.82,91.8-25.18,32.28-6.02,62.85-8.31,90.86-6.8,28.13,1.52,54.54,6.75,78.5,15.55,27.16,9.97,53.37,23.58,82.47,42.81,17.38,11.46,34.35,23.87,50.78,35.88,22.06,16.13,44.87,32.81,68.87,47.32,67.03,40.54,148.4,65.99,241.85,75.65,76.85,7.92,161.95,5.36,252.91-7.59,55.85-7.87,115.01-19.87,180.88-36.69,129.55-33.07,281.96-74.1,430.08-127.72,17.97-6.51,35.57-14.76,52.59-22.74,10.1-4.74,20.54-9.63,30.95-14.11,3.14-1.35,6.27-2.7,9.4-4.05,21.44-9.24,43.61-18.79,66.05-27.26,26.91-10.14,49.34-17.14,70.61-22.03,27.28-6.26,52.6-9.04,77.42-8.49,22.82,.51,45.85,3.7,70.38,9.76,19.32,4.77,39.55,11.31,63.65,20.58,9.39,3.61,18.67,7.57,27.37,11.32,11.68,5.04,23.33,10.31,33.34,14.85,3.16,1.42,6.32,2.85,9.49,4.28,18.95,8.54,38.55,17.37,58.53,25.88,57.9,24.65,106.07,42.01,151.61,54.63,35.52,9.89,71.99,16.17,107.25,22.24,26.14,4.5,50.83,8.75,75.33,14.37,68.34,15.67,133.41,41.4,196.34,66.27,30.59,12.1,62.23,24.6,93.62,35.69,38.9,13.69,74.65,25.52,109.29,36.16,67.13,20.66,129.7,36.59,191.26,48.72,71.37,14.12,147.33,24.87,225.77,31.93,127.79,11.7,264.58,13.71,406.58,5.97,9.21-.5,18.53-1.04,27.69-1.62,53.07-3.27,105.76-7.77,156.62-13.37l.09,.8c-50.87,5.61-103.58,10.11-156.66,13.37-9.16,.57-18.48,1.12-27.69,1.62-56.44,3.07-112.06,4.61-166.62,4.61Z"/><path class="cls-1" d="M4572.33,1431.1c-84.09,0-164.27-2.82-239.71-8.47-79.67-5.82-156.04-14.8-226.99-26.69-62.3-10.37-125.26-24.16-192.48-42.16-35.13-9.38-71.15-19.8-110.14-31.86-32.43-10.08-65.15-21.72-96.78-32.98-62.74-22.34-127.62-45.43-195.64-58.37-24.2-4.6-48.52-7.96-74.27-11.51-40.71-5.61-82.81-11.42-123.76-22.53-50.78-13.72-102.52-33.21-162.85-61.34-24.3-11.33-47.92-23.29-71.99-35.56l-.41-.21c-11.34-5.83-23.06-11.87-34.67-17.6-9.19-4.54-18.99-9.33-28.82-13.68-39.63-17.55-87.61-35.7-142.97-37.3-26.85-.78-54.12,2.49-83.36,10.01-22.7,5.84-46.54,14.21-75,26.36-22.93,9.79-45.49,20.73-67.3,31.32-4.15,2.01-8.3,4.03-12.45,6.03-10.74,5.19-21.51,10.86-31.92,16.33-18.2,9.58-37.03,19.48-56.46,27.27-135.77,54.44-279.26,96.59-426.59,138.51-65.34,18.6-124.01,32.34-179.38,42-70.45,12.43-137.55,18.68-200.15,18.68-17.28,0-34.22-.48-50.79-1.43-92.5-5.37-173.68-25.98-241.3-61.26-24.1-12.57-47.08-27.14-69.31-41.23-16.57-10.5-33.7-21.36-51.19-31.33-29.05-16.61-55.25-28.24-82.44-36.62-23.76-7.32-49.99-11.28-77.98-11.78-52.39-.93-112.01,10.49-182.27,34.93-8.88,3.09-18,6.41-27.13,9.87-36.66,13.91-71.63,29.61-105.45,44.8-12.86,5.77-25,11.23-37.27,16.61-55.18,24.19-96.43,40.52-133.76,52.97-55.74,18.58-106.5,27.61-156.51,27.61-15.09,0-30.11-.82-45.19-2.45-24.46-2.64-49.17-7.44-75.53-14.66-102.67-28.55-191.93-86.47-258.14-167.51-48.14-58.91-83.63-134.65-121.21-214.83-6.86-14.73-12.6-27.02-18.89-39.84-20.88-42.55-39.91-75.61-59.87-104.05-25.69-36.59-52.99-65.59-83.46-88.67-5.42-4.11-11.07-8.07-16.8-11.77-40.38-26.1-86.73-40.9-134.06-42.82-45.77-1.84-91.23,8.51-131.44,29.96-41.58,22.36-76.39,57.81-98.02,99.8-10.81,20.98-18.11,43.01-21.71,65.49-3.73,23.27-3.38,46.47,1.03,68.96l-.9,.18c-4.43-22.59-4.78-45.9-1.04-69.28,3.62-22.57,10.95-44.7,21.8-65.76,10.74-20.86,24.61-40.05,41.21-57.05,16.9-17.3,36.14-31.81,57.2-43.14,40.36-21.52,85.98-31.92,131.91-30.07,23.63,.96,47.22,5.16,70.12,12.5,22.74,7.29,44.4,17.54,64.4,30.46,5.75,3.71,11.42,7.68,16.86,11.81,30.54,23.14,57.91,52.21,83.66,88.88,20,28.48,39.05,61.58,59.95,104.17,6.3,12.83,12.04,25.12,18.9,39.86,37.55,80.12,73.02,155.81,121.09,214.63,66.09,80.89,155.19,138.7,257.67,167.2,26.32,7.21,50.98,11.99,75.39,14.63,64.9,7.01,128.87-.97,201.3-25.12,37.3-12.44,78.53-28.76,133.68-52.94,12.27-5.38,24.41-10.83,37.27-16.6,33.83-15.2,68.82-30.91,105.5-44.83,9.13-3.46,18.27-6.79,27.15-9.88,70.36-24.48,130.09-35.92,182.59-34.98,28.08,.5,54.4,4.48,78.24,11.82,27.26,8.39,53.51,20.06,82.62,36.7,17.5,9.97,34.64,20.84,51.22,31.35,22.21,14.08,45.18,28.63,69.24,41.19,67.5,35.22,148.56,55.8,240.93,61.16,76.54,4.41,160.89-1.39,250.73-17.23,55.33-9.66,113.98-23.39,179.29-41.98,147.31-41.92,290.78-84.06,426.5-138.48,19.39-7.77,38.19-17.66,56.37-27.23,10.42-5.48,21.19-11.15,31.95-16.35,4.16-2.01,8.31-4.02,12.45-6.03,21.82-10.59,44.39-21.54,67.34-31.34,28.5-12.16,52.38-20.55,75.13-26.4,29.33-7.54,56.68-10.82,83.62-10.04,55.51,1.61,103.6,19.8,143.31,37.38,9.85,4.36,19.66,9.16,28.86,13.7,11.61,5.74,23.34,11.77,34.68,17.61l.41,.21c24.06,12.27,47.67,24.22,71.96,35.55,60.28,28.1,111.97,47.58,162.7,61.28,40.89,11.1,82.96,16.9,123.65,22.51,24.63,3.4,50.1,6.91,74.32,11.51,68.09,12.95,133.01,36.06,195.78,58.41,31.63,11.26,64.33,22.9,96.74,32.97,38.97,12.05,74.99,22.47,110.11,31.85,67.19,17.99,130.12,31.78,192.39,42.14,70.92,11.88,147.27,20.85,226.91,26.67,124.59,9.32,262.14,10.95,408.82,4.86,9.25-.38,18.61-.8,27.83-1.23,53.13-2.44,106.02-5.71,157.19-9.72l.07,.92c-51.19,4.01-104.08,7.28-157.22,9.72-9.22,.43-18.59,.85-27.83,1.23-57.9,2.41-114.39,3.61-169.22,3.61Z"/><path class="cls-1" d="M4601.46,1371.09c-85.38,0-163.83-2.12-237.12-6.38-82.29-4.63-156.92-11.64-228.14-21.42-63.09-8.6-126.42-20.24-193.62-35.58-35.63-8.11-71.92-17.12-110.96-27.56-33.48-9-67.29-19.69-99.98-30.03-62.59-19.8-127.31-40.27-194.99-50.75-23.98-3.71-49.12-6.43-73.44-9.06-46.08-4.98-93.73-10.12-140.01-22.41-54.8-14.48-111.71-36.73-173.99-68.01-26.79-13.46-52.33-27.65-75.94-40.97l-5.08-2.89c-10.38-5.91-21.12-12.03-31.75-17.89-10.05-5.53-19.94-10.92-30.3-16.05-41.9-20.75-92.75-42.25-152.17-44.31-28.95-1.01-58.23,2.77-89.5,11.56-24.21,6.8-49.47,16.56-79.49,30.71-23.64,11.14-46.81,23.52-69.23,35.49-4.95,2.64-9.91,5.29-14.87,7.93-11.15,5.92-22.31,12.36-33.1,18.58-19.32,11.14-39.29,22.66-60.08,31.76-132.36,57.93-273.4,102.26-409.79,145.12l-13.24,4.16c-64.78,20.37-122.94,35.84-177.79,47.3-88.79,18.72-172.49,27.77-248.78,26.9-91.41-1.1-172.3-16.83-240.41-46.76-24.16-10.62-47.3-23.06-69.67-35.1-16.73-9-34.03-18.31-51.64-26.79-29.02-14.03-55.26-23.73-82.57-30.52-23.62-5.87-49.76-8.58-77.7-8.06-27.34,.51-57.64,4.38-90.05,11.5-28.28,6.21-58.42,14.86-92.15,26.43-8.88,3.05-18.07,6.32-27.3,9.71-29.4,10.8-57.92,22.51-85.49,33.82-20.34,8.35-39.55,16.23-58.73,23.63-50.71,19.55-94.64,33.99-134.29,44.15-35.42,9.08-67.95,14.2-99.47,15.68-31.64,1.48-62.21-.72-93.47-6.74-22.81-4.39-45.65-10.8-69.85-19.62-45.4-16.55-87.8-39.31-126.03-67.65-41.69-30.91-78.32-68.43-108.88-111.54-37.28-52.58-65.44-117.73-95.27-186.69-4.96-11.47-10.09-23.33-15.28-35.18-5.63-12.94-11.73-26.85-18.29-40.82-19.99-42.6-38.98-76.3-59.76-106.05-25.91-37.1-53.73-66.61-85.04-90.21-5.52-4.17-11.27-8.18-17.1-11.93-20.25-13.05-42.17-23.42-65.16-30.83-23.24-7.49-47.15-11.83-71.07-12.88-46.63-2.04-92.9,8.21-133.79,29.66-42.24,22.15-77.76,57.37-100.01,99.16-11.14,20.93-18.73,42.92-22.55,65.37-3.97,23.28-3.78,46.51,.56,69.06l-1.02,.2c-4.36-22.66-4.55-46.02-.56-69.43,3.84-22.56,11.47-44.66,22.66-65.68,11.06-20.78,25.27-39.89,42.24-56.8,17.24-17.18,36.82-31.58,58.2-42.79,41.06-21.53,87.51-31.83,134.32-29.78,24.02,1.06,48.02,5.41,71.35,12.93,23.07,7.44,45.08,17.86,65.4,30.95,5.85,3.76,11.62,7.79,17.16,11.97,31.41,23.67,59.3,53.25,85.27,90.44,20.81,29.8,39.83,63.55,59.85,106.21,6.56,13.99,12.68,27.9,18.3,40.85,5.19,11.85,10.32,23.71,15.28,35.18,29.8,68.92,57.95,134.01,95.16,186.5,58.39,82.37,139.45,144.21,234.41,178.82,24.14,8.8,46.93,15.2,69.69,19.58,61.45,11.82,122.62,8.98,192.5-8.92,39.61-10.15,83.5-24.58,134.17-44.11,19.17-7.39,38.37-15.27,58.71-23.62,27.58-11.32,56.11-23.03,85.53-33.84,9.24-3.39,18.44-6.66,27.32-9.72,33.77-11.59,63.95-20.25,92.27-26.46,32.48-7.13,62.85-11.01,90.26-11.52,28.04-.52,54.27,2.2,77.97,8.09,27.38,6.8,53.69,16.52,82.78,30.59,17.63,8.49,34.94,17.8,51.68,26.81,22.36,12.03,45.47,24.47,69.6,35.07,67.99,29.87,148.74,45.57,240.01,46.67,76.22,.88,159.84-8.16,248.56-26.87,54.82-11.45,112.95-26.91,177.69-47.27l13.24-4.16c136.37-42.86,277.38-87.18,409.69-145.08,20.74-9.08,40.68-20.58,59.98-31.71,10.8-6.23,21.96-12.67,33.13-18.6,4.97-2.64,9.92-5.28,14.87-7.93,22.42-11.97,45.61-24.35,69.27-35.51,30.07-14.18,55.38-23.95,79.65-30.77,31.37-8.82,60.75-12.61,89.81-11.6,59.62,2.07,110.6,23.61,152.59,44.42,10.39,5.14,20.28,10.54,30.34,16.07,10.64,5.86,21.38,11.98,31.77,17.89l5.08,2.89c23.59,13.32,49.12,27.49,75.9,40.94,62.22,31.26,119.06,53.48,173.79,67.94,46.21,12.26,93.82,17.41,139.86,22.38,24.33,2.63,49.48,5.34,73.49,9.06,67.76,10.5,132.52,30.98,195.15,50.79,32.69,10.34,66.48,21.03,99.94,30.02,39.02,10.43,75.31,19.44,110.92,27.55,67.16,15.34,130.47,26.97,193.53,35.57,71.19,9.78,145.79,16.79,228.06,21.42,120.46,7,254.92,8.23,411.07,3.74,9.28-.26,18.69-.55,27.97-.84,52.57-1.59,105.65-3.63,157.77-6.06l.05,1.03c-52.13,2.43-105.21,4.47-157.79,6.06-9.28,.29-18.69,.58-27.97,.84-61.18,1.76-119.05,2.64-174.04,2.64Z"/><path class="cls-1" d="M536.34,1363.25c-5.42,0-10.79-.11-16.13-.34-29.66-1.25-58.33-6-87.62-14.5-20.81-6.04-41.8-14.08-64.16-24.59-41.73-19.6-80.23-44.73-114.45-74.69-37.68-32.99-70.39-72.08-97.21-116.18-28.88-47.48-50.95-104.22-74.31-164.3-8.16-20.98-16.59-42.66-25.57-64.62-4.63-11.43-10.83-26.5-17.69-41.8-41.57-92.65-88.05-156.14-146.27-199.8-5.62-4.22-11.47-8.29-17.4-12.09-20.57-13.21-42.82-23.75-66.14-31.31-23.65-7.67-47.96-12.15-72.27-13.3-47.32-2.24-94.4,7.92-136.14,29.36-42.9,22.03-79.11,57.04-101.96,98.57-11.48,20.87-19.36,42.81-23.41,65.21-4.21,23.27-4.19,46.53,.08,69.13l-1.13,.21c-4.29-22.74-4.31-46.14-.08-69.55,4.08-22.53,11.99-44.58,23.54-65.56,11.38-20.68,25.94-39.71,43.28-56.54,17.58-17.07,37.48-31.37,59.16-42.5,41.93-21.54,89.2-31.73,136.72-29.49,24.41,1.16,48.83,5.65,72.57,13.36,23.41,7.6,45.75,18.17,66.4,31.44,5.95,3.82,11.83,7.9,17.47,12.14,32.26,24.19,60.68,54.29,86.88,92.01,21.25,30.59,40.79,65.99,59.75,108.24,6.87,15.32,13.07,30.41,17.71,41.84,8.98,21.96,17.42,43.65,25.57,64.63,23.34,60.02,45.39,116.72,74.22,164.12,26.76,44,59.39,83,96.98,115.92,34.14,29.89,72.55,54.96,114.18,74.52,22.3,10.48,43.23,18.5,63.99,24.52,29.21,8.48,57.78,13.21,87.35,14.46,30.29,1.28,61.81-1.07,96.33-7.19,40.99-7.27,86.3-19.14,134.65-35.28,26.26-8.77,52.92-18.86,81.15-29.55,20.93-7.93,42.57-16.12,64.56-23.93,9.4-3.34,18.65-6.55,27.49-9.55,74.41-25.19,132.38-38.22,182.45-40.99,28.4-1.57,53.82-.15,77.7,4.36,27.55,5.2,53.9,12.97,82.92,24.47,17.77,7,35.24,14.76,52.14,22.26,22.5,9.98,45.76,20.31,69.95,28.96,68.49,24.49,148.94,35.32,239.1,32.19,75.9-2.68,158.8-14.96,246.39-36.51,54.31-13.24,111.92-30.43,176.1-52.57,12.07-4.16,24.17-8.32,36.29-12.49,127.73-43.9,259.8-89.29,383.07-147.53,22.04-10.41,43.1-23.51,63.47-36.18,11.21-6.97,22.8-14.18,34.42-20.86,5.65-3.24,11.37-6.55,16.91-9.75,23.14-13.38,47.07-27.21,71.58-39.75,31.62-16.18,58.37-27.35,84.17-35.14,33.41-10.1,64.82-14.4,96.01-13.16,28.57,1.13,56.97,6.76,86.83,17.2,22.92,8.01,46.77,18.9,75.05,34.26,10.95,5.95,21.73,12.38,31.83,18.45,10.03,6.04,20.14,12.32,29.93,18.38,2.89,1.79,5.77,3.58,8.67,5.37,22.83,14.01,50.16,30.48,79.83,46.34,65.17,34.85,125.65,59.25,184.88,74.59,51.63,13.43,104.9,17.78,156.41,21.99,23.91,1.95,48.64,3.97,72.31,6.87,67.32,8.25,131.87,26.09,194.3,43.35,33.82,9.35,68.79,19.01,103.36,26.88,39.03,8.81,75.58,16.42,111.74,23.24,67.03,12.7,130.7,22.19,194.66,28.99,70.03,7.54,145.01,12.82,229.2,16.16,141.36,5.89,288.26,4.63,413.32,2.63,9.39-.15,18.77-.3,28.11-.45,25.36-.38,50.51-.76,75.36-1.15,28.12-.43,55.83-.86,82.99-1.26l.02,1.15c-27.16,.4-54.87,.83-82.99,1.26-24.84,.38-50,.77-75.35,1.15-9.34,.15-18.72,.31-28.11,.45-125.07,2-272,3.26-413.39-2.63-84.22-3.33-159.22-8.62-229.28-16.16-63.98-6.81-127.69-16.29-194.75-29-36.17-6.83-72.74-14.43-111.78-23.25-34.59-7.87-69.57-17.54-103.41-26.89-62.39-17.24-126.9-35.07-194.13-43.32-23.65-2.9-48.37-4.92-72.27-6.87-51.56-4.21-104.87-8.56-156.6-22.02-59.32-15.37-119.88-39.8-185.13-74.69-29.69-15.88-57.05-32.35-79.89-46.37-2.9-1.79-5.79-3.58-8.67-5.37-9.78-6.06-19.9-12.34-29.92-18.37-10.09-6.07-20.85-12.49-31.78-18.43-44.12-23.96-97.8-48.79-161.38-51.32-31.06-1.24-62.35,3.05-95.63,13.11-25.74,7.78-52.42,18.92-83.98,35.07-24.48,12.52-48.4,26.35-71.53,39.72-5.54,3.2-11.26,6.51-16.91,9.76-11.6,6.66-23.18,13.87-34.38,20.84-20.4,12.69-41.49,25.8-63.59,36.24-123.32,58.26-255.43,103.66-383.18,147.57-12.12,4.16-24.22,8.32-36.29,12.49-64.22,22.15-121.86,39.35-176.21,52.6-87.66,21.57-170.64,33.86-246.62,36.55-10.12,.35-20.13,.53-30,.53-78.23,0-148.58-11-209.52-32.78-24.23-8.66-47.51-18.99-70.03-28.99-16.89-7.5-34.36-15.25-52.1-22.24-28.96-11.47-55.24-19.23-82.71-24.41-23.79-4.49-49.12-5.91-77.43-4.34-49.96,2.77-107.84,15.77-182.14,40.93-8.84,3-18.08,6.21-27.48,9.55-21.97,7.81-43.61,16-64.54,23.93-28.24,10.69-54.91,20.79-81.19,29.56-48.41,16.16-93.77,28.05-134.82,35.32-28.53,5.06-55.02,7.55-80.46,7.55Z"/><path class="cls-1" d="M542.28,1374.28c-17.47,0-34.19-1.14-50.47-3.43-27.68-3.89-54.42-11.18-81.76-22.26-18.82-7.63-37.94-17.3-58.47-29.55-37.95-22.66-72.55-50.18-102.84-81.79-33.6-35.06-62.39-75.69-85.57-120.77-22.18-43.14-39.22-93.05-57.26-145.9-9.94-29.13-20.22-59.26-31.95-90.05-6.3-16.7-11.73-30.29-17.09-42.78-39.52-92.12-87.84-158.63-147.74-203.34-5.72-4.27-11.67-8.4-17.7-12.25-20.89-13.38-43.47-24.07-67.12-31.79-24.06-7.85-48.78-12.47-73.46-13.72-48-2.43-95.89,7.62-138.5,29.06-43.55,21.92-80.46,56.72-103.91,97.99-11.82,20.81-19.99,42.69-24.28,65.05-4.46,23.27-4.6,46.55-.41,69.21l-1.24,.23c-4.21-22.81-4.08-46.25,.41-69.68,4.31-22.49,12.52-44.51,24.42-65.44,23.58-41.49,60.67-76.47,104.44-98.5,42.8-21.54,90.91-31.63,139.13-29.2,24.8,1.26,49.63,5.9,73.79,13.78,23.75,7.75,46.43,18.49,67.41,31.93,6.05,3.87,12.03,8.01,17.77,12.3,32.65,24.37,62.43,55.86,88.49,93.58,21.9,31.69,41.41,67.77,59.65,110.27,5.37,12.51,10.8,26.12,17.11,42.83,11.74,30.81,22.02,60.94,31.97,90.09,18.02,52.8,35.04,102.68,57.18,145.73,44.24,86.02,107.46,154,187.93,202.05,20.47,12.22,39.54,21.86,58.29,29.47,55.52,22.52,109.45,29.75,174.87,23.44,42.05-4.05,87.51-12.95,135.13-26.46,33.58-9.52,68.14-21.73,104.72-34.65,13.82-4.88,28.12-9.93,42.44-14.86,9.86-3.39,18.91-6.46,27.66-9.39,36.21-12.1,65.68-20.92,92.72-27.76,33.33-8.43,62.65-13.74,89.64-16.23,28.4-2.62,53.73-2.42,77.43,.62,27.76,3.57,54.16,9.4,83.07,18.36,17.9,5.51,35.55,11.7,52.62,17.69,22.63,7.95,46.04,16.16,70.29,22.86,69.03,19.06,149.16,25.02,238.19,17.71,75.59-6.26,157.76-21.79,244.22-46.15,53.8-15.03,110.89-33.95,174.51-57.86,16.75-6.29,33.85-12.67,50.39-18.85,122.01-45.55,248.16-92.64,365.4-151.93,23.31-11.79,45.47-26.46,66.9-40.66,11.65-7.72,23.7-15.69,35.78-23.11,6.25-3.84,12.59-7.75,18.72-11.54,23.94-14.8,48.7-30.1,74.12-44.03,33.16-18.18,61.35-30.73,88.7-39.51,35.45-11.38,68.88-16.19,102.21-14.72,30.5,1.34,60.69,7.78,92.31,19.68,31.76,11.96,60.22,27.88,78.86,38.81,11.58,6.79,22.81,14.02,33.31,20.83,9.62,6.25,19.32,12.71,28.7,18.97,3.87,2.58,7.76,5.17,11.65,7.75,32.71,21.56,58.55,37.51,83.77,51.73,68.23,38.47,132.34,65.05,195.97,81.24,57.28,14.64,116.42,18.07,173.62,21.39,23.28,1.35,47.36,2.75,70.48,4.89,66.73,6.19,130.98,21.39,193.1,36.08,35.07,8.3,71.33,16.88,107.11,23.57,38.44,7.12,76.31,13.49,112.56,18.94,66.76,10.09,130.81,17.42,195.79,22.41,68.14,5.33,143.49,8.89,230.35,10.9,113.78,2.88,232.51,2.33,347.32,1.81,22.42-.1,45.6-.21,68.25-.29,9.66-.03,19.16-.05,28.25-.06,57.03,.01,110.5,.43,158.93,1.25l-.02,1.26c-48.42-.82-101.88-1.24-158.9-1.25-9.09,.01-18.59,.03-28.25,.06-22.66,.08-45.84,.19-68.25,.29-114.82,.53-233.56,1.08-347.36-1.81-86.88-2.01-162.25-5.58-230.42-10.9-65.02-4.99-129.09-12.33-195.88-22.42-36.26-5.45-74.15-11.82-112.6-18.94-35.81-6.7-72.08-15.28-107.17-23.58-62.08-14.69-126.28-29.88-192.93-36.06-23.1-2.14-47.16-3.54-70.43-4.89-57.26-3.32-116.46-6.75-173.86-21.43-63.74-16.23-127.94-42.84-196.28-81.37-25.25-14.23-51.1-30.2-83.84-51.78-3.9-2.59-7.78-5.17-11.65-7.75-9.38-6.25-19.08-12.71-28.69-18.96-10.49-6.81-21.71-14.02-33.26-20.8-18.6-10.91-46.99-26.79-78.67-38.72-31.49-11.85-61.55-18.26-91.92-19.6-75.11-3.32-141.12,27.16-190.24,54.08-25.39,13.92-50.13,29.21-74.06,44-6.13,3.79-12.47,7.7-18.72,11.54-12.06,7.4-24.1,15.38-35.74,23.08-21.46,14.21-43.66,28.91-67.03,40.73-117.3,59.32-243.49,106.42-365.53,151.98-16.54,6.17-33.64,12.56-50.39,18.85-63.66,23.92-120.78,42.86-174.62,57.89-86.54,24.39-168.78,39.93-244.46,46.2-24.6,2.02-48.54,3.03-71.74,3.03-60.9,0-116.8-6.95-166.89-20.78-24.29-6.71-47.72-14.93-70.37-22.88-17.06-5.99-34.69-12.18-52.58-17.68-28.84-8.94-55.17-14.76-82.86-18.31-23.61-3.03-48.85-3.24-77.16-.62-26.93,2.49-56.18,7.79-89.45,16.2-27.02,6.83-56.45,15.65-92.63,27.73-8.75,2.93-17.79,6-27.65,9.38-14.32,4.92-28.61,9.97-42.43,14.85-36.6,12.93-71.18,25.14-104.8,34.68-47.69,13.52-93.23,22.44-135.36,26.5-14.98,1.44-29.34,2.17-43.23,2.17Z"/><path class="cls-1" d="M548.13,1388.56c-60.33,0-110.11-12.37-160.64-39.82-16.84-9.14-34.1-20.44-52.77-34.52-72.2-54.46-127.77-126.54-165.14-214.24-16.73-39.24-29.58-83.35-43.19-130.04-10.62-36.44-21.6-74.12-35.35-112.93-5.88-16.76-11.11-30.67-16.49-43.76-17.29-42.15-37.28-79.85-59.41-112.05-26.21-38.13-56.42-70.03-89.79-94.82-5.81-4.33-11.87-8.5-18-12.41-21.21-13.54-44.12-24.4-68.09-32.27-24.47-8.03-49.59-12.79-74.66-14.14-48.67-2.62-97.38,7.33-140.85,28.76-44.21,21.8-81.81,56.4-105.87,97.42-12.17,20.75-20.63,42.58-25.14,64.89-4.7,23.26-5.01,46.57-.9,69.28l-1.36,.25c-4.14-22.88-3.84-46.37,.9-69.8,4.54-22.46,13.05-44.43,25.3-65.31,24.19-41.25,62-76.04,106.45-97.96,43.68-21.54,92.62-31.54,141.53-28.9,25.19,1.36,50.43,6.14,75.02,14.21,24.09,7.9,47.1,18.81,68.41,32.41,6.15,3.92,12.24,8.12,18.08,12.47,33.49,24.88,63.8,56.89,90.1,95.15,22.19,32.28,42.23,70.07,59.55,112.31,5.38,13.12,10.63,27.04,16.51,43.83,13.76,38.85,24.75,76.55,35.38,113,13.6,46.66,26.44,90.73,43.14,129.89,37.28,87.47,92.7,159.36,164.71,213.68,18.62,14.04,35.82,25.3,52.6,34.41,52,28.24,103.21,40.45,166.05,39.61,42.53-.57,88.16-6.51,135.6-17.64,41.22-9.67,84.2-24.02,129.69-39.22,6.28-2.1,12.59-4.21,18.93-6.31,9.24-3.07,18.53-6.15,27.83-9.22,70.11-23.11,127.94-39.94,182.28-46.99,28.42-3.69,53.65-4.71,77.16-3.11,27.67,1.88,54.88,5.88,83.21,12.24,18.05,4.01,35.87,8.64,53.11,13.12,22.76,5.91,46.3,12.03,70.61,16.78,69.58,13.59,149.42,14.68,237.29,3.23,75.28-9.86,156.72-28.64,242.05-55.79,53.29-16.81,109.85-37.47,172.92-63.15,19.86-8.09,40.18-16.28,59.83-24.21,117.79-47.53,239.58-96.67,352.39-157.33,24.54-13.2,47.8-29.44,70.28-45.14,12.11-8.46,24.62-17.2,37.19-25.36,6.8-4.42,13.7-8.93,20.36-13.29,24.8-16.23,50.44-33.01,76.82-48.35,51.68-30.04,121.29-64.02,201.63-60.16,32.44,1.55,64.42,8.81,97.78,22.17,33.43,13.4,63.19,31.16,82.67,43.36,12.22,7.66,23.89,15.67,34.8,23.21,9.37,6.5,18.83,13.2,27.97,19.68,4.62,3.28,9.41,6.67,14.13,10,33.18,23.25,61.05,41.4,87.7,57.13,71.35,42.11,139.08,70.86,207.06,87.9,63.23,15.91,128.58,18.29,191.77,20.6,22.34,.81,45.44,1.66,67.69,3.1,65.99,4.28,129.76,16.85,191.44,29,36.48,7.19,74.19,14.62,111.33,20.08,38.35,5.56,76.49,10.49,113.38,14.63,66.3,7.51,130.72,12.69,196.93,15.84,65.75,3.22,139.31,5.01,231.5,5.64,68.44,.63,139.62,.41,208.45,.2,68.94-.21,140.23-.42,209.38,.2,9.51,.09,19.06,.2,28.4,.32,56.48,.86,110.14,2.51,159.51,4.91l-.07,1.38c-49.35-2.39-103-4.05-159.46-4.91-9.33-.13-18.88-.24-28.39-.32-69.14-.62-140.42-.41-209.36-.2-68.84,.21-140.02,.42-208.47-.2-92.21-.63-165.79-2.42-231.56-5.64-66.24-3.15-130.68-8.33-197.02-15.84-36.9-4.15-75.06-9.07-113.42-14.64-37.17-5.46-74.91-12.9-111.4-20.09-61.63-12.14-125.36-24.7-191.26-28.97-22.23-1.44-45.32-2.29-67.66-3.1-63.27-2.31-128.69-4.69-192.06-20.64-68.1-17.06-135.95-45.86-207.42-88.05-26.68-15.75-54.58-33.92-87.79-57.19-4.73-3.33-9.51-6.73-14.14-10-9.14-6.48-18.59-13.18-27.96-19.68-10.89-7.54-22.54-15.54-34.74-23.18-19.43-12.17-49.12-29.9-82.45-43.25-33.22-13.31-65.06-20.53-97.34-22.07-79.98-3.84-149.36,30.03-200.87,59.98-26.36,15.32-51.98,32.09-76.76,48.31-6.66,4.36-13.56,8.87-20.36,13.29-12.54,8.15-25.05,16.88-37.15,25.33-22.52,15.73-45.8,31.99-70.42,45.23-112.88,60.69-234.71,109.85-352.53,157.39-19.64,7.93-39.96,16.12-59.82,24.21-63.1,25.7-119.7,46.37-173.03,63.19-85.4,27.18-166.92,45.97-242.29,55.85-88.02,11.47-168,10.38-237.73-3.24-24.35-4.76-47.91-10.88-70.69-16.79-17.23-4.47-35.04-9.1-53.07-13.11-28.26-6.34-55.4-10.34-83-12.21-23.41-1.59-48.56-.58-76.89,3.1-54.23,7.04-111.99,23.85-182.03,46.94-9.3,3.07-18.59,6.15-27.83,9.22-6.34,2.11-12.65,4.21-18.92,6.31-45.53,15.21-88.53,29.57-129.81,39.26-47.54,11.15-93.27,17.1-135.9,17.67-2.04,.03-4.07,.04-6.09,.04Z"/><path class="cls-1" d="M556.06,1406.09c-11.24,0-22.29-.39-33.15-1.16-32.39-2.31-61.17-8.29-87.99-18.28-23.83-8.88-46.73-21.23-70-37.75-15.1-10.73-30.06-23.27-47.07-39.49-30.04-28.63-56.78-60.97-79.48-96.11-25.22-39.04-46.21-82.71-62.39-129.79-12.22-35.56-21.59-74.51-31.5-115.75-10.39-43.22-21.14-87.92-36.37-134.25-5.42-16.66-10.61-31.29-15.88-44.74-36.25-92.48-86.94-163.27-150.67-210.41-5.91-4.38-12.07-8.61-18.3-12.57-21.53-13.71-44.77-24.73-69.07-32.74-24.88-8.21-50.41-13.11-75.86-14.56-49.34-2.81-98.86,7.04-143.2,28.47-44.87,21.69-83.16,56.08-107.82,96.84-12.51,20.69-21.26,42.46-26,64.73-4.95,23.25-5.42,46.59-1.38,69.36l-1.47,.26c-4.07-22.96-3.6-46.48,1.39-69.93,4.78-22.43,13.58-44.36,26.18-65.19,24.8-41.01,63.32-75.6,108.45-97.41,44.57-21.54,94.34-31.43,143.93-28.61,25.58,1.46,51.23,6.39,76.24,14.64,24.42,8.06,47.77,19.13,69.41,32.9,6.26,3.98,12.44,8.23,18.38,12.63,63.96,47.31,114.82,118.32,151.17,211.06,5.28,13.48,10.49,28.14,15.91,44.82,15.25,46.39,26.01,91.11,36.41,134.36,9.91,41.2,19.26,80.11,31.46,115.61,16.14,46.97,37.08,90.53,62.23,129.47,22.64,35.05,49.31,67.29,79.26,95.84,16.96,16.16,31.86,28.67,46.91,39.35,23.16,16.45,45.95,28.74,69.66,37.57,26.68,9.94,55.32,15.89,87.57,18.19,42.63,3.05,88.41,.08,136.07-8.82,45.58-8.51,92.92-23.22,150.07-41.56,8.57-2.75,17.73-5.71,28-9.06,57.92-18.83,123.57-40.18,182.19-49.99,28.48-4.77,53.62-7,76.88-6.84,28.06,.2,55.32,2.2,83.34,6.13,18.2,2.5,36.21,5.56,53.63,8.52,22.88,3.89,46.55,7.91,70.91,10.71,70.17,8.07,149.7,4.29,236.39-11.26,74.98-13.5,155.69-35.51,239.88-65.43,52.78-18.6,108.83-40.99,171.34-68.45,22.07-9.69,44.66-19.51,66.51-29,114.44-49.71,232.78-101.12,342.14-163.31,25.75-14.64,50.09-32.43,73.63-49.63,12.57-9.19,25.58-18.69,38.63-27.6,7.32-4.99,14.74-10.09,21.91-15.02,25.68-17.66,52.24-35.93,79.62-52.68,36.23-22.16,67.29-37.49,97.75-48.24,39.51-13.95,76.99-19.79,114.6-17.85,34.38,1.76,68.15,9.83,103.26,24.66,35.12,14.84,66.17,34.45,86.48,47.91,12.89,8.55,25.49,17.69,36.28,25.59,9.21,6.75,18.51,13.71,27.5,20.44,5.35,4.01,10.89,8.15,16.36,12.22,34.19,25.25,63.3,45.12,91.64,62.52,34.6,21.25,69.27,39.65,103.03,54.67,38.35,17.06,77.08,30.48,115.11,39.88,69.58,17.25,141.54,18.45,211.12,19.6,21.01,.35,42.73,.71,63.71,1.52,65.03,2.52,128.12,12.48,189.15,22.11,38.09,6.01,77.48,12.22,116.18,16.39,38.19,4.04,76.61,7.51,114.2,10.33,64.68,4.91,131.31,8.02,198.07,9.26,71.98,1.44,145.06,1.19,232.65,.38,32.05-.22,65.08-.54,97.03-.86,106.41-1.04,216.43-2.12,323.06,.15,9.54,.21,19.14,.45,28.54,.71,56.55,1.7,110.41,4.58,160.09,8.57l-.12,1.49c-49.66-3.98-103.49-6.86-160.02-8.56-9.39-.27-18.99-.51-28.53-.71-106.6-2.27-216.62-1.19-323.01-.15-31.94,.31-64.98,.64-97.03,.86-87.6,.81-160.7,1.06-232.7-.38-66.78-1.24-133.45-4.35-198.15-9.26-37.6-2.82-76.04-6.3-114.24-10.33-38.74-4.17-78.15-10.39-116.25-16.4-60.98-9.62-124.03-19.57-188.97-22.09-20.97-.81-42.68-1.17-63.68-1.52-69.67-1.15-141.72-2.35-211.46-19.64-38.12-9.42-76.93-22.86-115.36-39.96-33.83-15.05-68.55-33.48-103.21-54.76-28.37-17.42-57.52-37.31-91.74-62.59-5.48-4.07-11.02-8.22-16.37-12.22-8.98-6.72-18.27-13.68-27.48-20.43-10.78-7.89-23.36-17.02-36.22-25.55-20.25-13.43-51.23-32.99-86.23-47.78-34.94-14.76-68.55-22.79-102.75-24.55-84.86-4.36-157.6,32.91-211.5,65.88-27.35,16.73-53.89,34.98-79.56,52.64-7.17,4.93-14.59,10.03-21.91,15.03-13.04,8.89-26.03,18.39-38.59,27.57-23.57,17.23-47.95,35.04-73.77,49.73-109.43,62.23-227.8,113.65-342.28,163.38-21.85,9.49-44.44,19.3-66.51,28.99-62.54,27.47-118.62,49.88-171.44,68.49-84.27,29.94-165.06,51.98-240.12,65.5-86.83,15.57-166.51,19.36-236.82,11.27-24.4-2.81-48.09-6.83-70.99-10.72-17.41-2.96-35.41-6.01-53.59-8.51-27.96-3.91-55.16-5.91-83.15-6.11-23.16-.16-48.23,2.07-76.62,6.82-58.51,9.8-124.11,31.13-181.98,49.94-10.27,3.35-19.43,6.31-28,9.06-57.2,18.36-104.59,33.08-150.25,41.61-35.65,6.66-70.27,10-103.3,10Z"/><path class="cls-1" d="M557.97,1426.39c-22.89,0-45.06-1.69-66.38-5.07-31.79-5.04-59.64-13.82-85.13-26.83-22.35-11.41-42.73-25.86-64.12-45.48-13.21-12.12-26.36-26.25-41.37-44.46-25.91-31.43-48.7-66.19-67.72-103.32-20.94-40.87-38.05-86.03-50.88-134.24-8.5-31.94-14.96-66.12-21.79-102.31-9.4-49.72-19.11-101.13-35.42-154.7-5.06-16.83-10.06-31.78-15.28-45.72-16.08-42.92-35.99-81.96-59.19-116.04-26.67-39.18-57.95-72.12-92.94-97.9-6.01-4.44-12.27-8.72-18.6-12.73-21.85-13.88-45.42-25.05-70.05-33.22-25.3-8.39-51.22-13.43-77.05-14.98-50-2.99-100.33,6.75-145.55,28.17-97.09,45.99-154.04,140.68-138.5,230.26l-1.59,.27c-4-23.03-3.36-46.6,1.88-70.05,5.01-22.4,14.11-44.29,27.07-65.07,25.41-40.77,64.64-75.17,110.45-96.87,22.54-10.68,46.55-18.53,71.36-23.33,24.82-4.81,50.05-6.48,74.98-4.99,25.97,1.56,52.03,6.63,77.46,15.06,24.75,8.21,48.44,19.44,70.41,33.39,6.36,4.03,12.65,8.34,18.69,12.8,35.14,25.89,66.54,58.96,93.32,98.29,23.27,34.18,43.24,73.34,59.37,116.38,5.23,13.97,10.24,28.96,15.31,45.82,16.33,53.65,26.05,105.11,35.46,154.87,6.83,36.16,13.29,70.31,21.77,102.19,12.8,48.1,29.87,93.16,50.75,133.92,18.97,37.02,41.69,71.69,67.53,103.03,14.97,18.15,28.06,32.23,41.22,44.29,21.28,19.52,41.54,33.9,63.76,45.24,25.34,12.93,53.03,21.66,84.65,26.67,42.47,6.73,88.4,6.73,136.53,0,45.69-6.4,93.62-19.65,151.52-37.59,9-2.78,18.47-5.77,28.16-8.89,8.19-2.63,16.49-5.31,24.51-7.9,55.58-17.96,108.07-34.92,157.59-45.09,28.59-5.87,53.64-9.33,76.6-10.57,28.6-1.55,55.9-1.54,83.48,.01,18.36,.99,36.57,2.47,54.18,3.9,22.99,1.87,46.77,3.8,71.18,4.67,70.78,2.5,150.01-6.16,235.5-25.74,74.68-17.16,154.67-42.42,237.72-75.07,52.28-20.39,107.8-44.51,169.75-73.74,23.7-11.18,47.99-22.5,71.47-33.44,111.64-52.03,227.07-105.82,333.61-169.63,26.92-16.12,52.35-35.45,76.94-54.13,13.06-9.92,26.55-20.18,40.11-29.83,7.81-5.56,15.71-11.24,23.36-16.73,26.6-19.11,54.1-38.87,82.52-57.04,37.76-24.14,70.26-40.86,102.28-52.61,41.53-15.23,81.05-21.58,120.79-19.42,36.32,1.97,71.88,10.86,108.73,27.15,36.81,16.28,69.16,37.74,90.29,52.46,13.57,9.46,26.61,19.4,37.76,27.97,9.13,7.03,18.33,14.25,27.24,21.24,6.01,4.72,12.22,9.59,18.38,14.38,35.24,27.28,65.61,48.86,95.57,67.91,36.07,22.95,72.39,42.76,107.94,58.88,40.28,18.27,81.09,32.51,121.29,42.31,76.4,18.7,155.47,18.53,231.93,18.36,19.2-.04,39.05-.09,58.27,.19,63.79,.9,125.93,8.3,186.03,15.45,39.98,4.76,81.31,9.68,121.85,12.47,37.97,2.54,76.67,4.56,115.02,6.02,64.48,2.51,129.64,3.39,199.2,2.68,65.43-.57,130.91-2.25,200.22-4.02,11.16-.29,22.35-.57,33.59-.86l3.28-.07c88.28-2.01,178.5-4.07,268.37-4.07,50.48,0,100.83,.65,150.7,2.32,9.59,.33,19.25,.7,28.68,1.1,56.77,2.54,110.83,6.66,160.68,12.22l-.18,1.6c-49.82-5.56-103.84-9.67-160.57-12.22-9.43-.41-19.08-.78-28.67-1.1-138.6-4.64-281.14-1.39-418.98,1.75l-3.28,.07c-11.23,.28-22.42,.57-33.58,.86-69.32,1.78-134.8,3.45-200.25,4.02-69.59,.71-134.77-.17-199.28-2.69-38.36-1.46-77.07-3.49-115.06-6.03-40.58-2.79-81.93-7.71-121.93-12.47-60.06-7.15-122.16-14.54-185.86-15.44-19.21-.27-39.06-.23-58.25-.19-76.56,.17-155.73,.35-232.32-18.4-40.3-9.83-81.2-24.1-121.57-42.41-35.62-16.16-72-36-108.14-58.99-30-19.08-60.41-40.69-95.69-68-6.16-4.79-12.37-9.67-18.38-14.39-8.9-6.99-18.1-14.21-27.22-21.23-11.14-8.56-24.16-18.49-37.7-27.93-21.07-14.68-53.33-36.08-90.02-52.31-36.67-16.22-72.05-25.06-108.17-27.02-89.75-4.88-165.85,35.79-222.12,71.78-28.38,18.15-55.87,37.9-82.45,56.99-7.65,5.49-15.55,11.17-23.36,16.73-13.54,9.64-27.03,19.89-40.07,29.8-24.63,18.71-50.09,38.06-77.09,54.23-106.61,63.85-222.09,117.66-333.76,169.71-23.48,10.94-47.76,22.26-71.46,33.44-61.98,29.24-117.54,53.38-169.85,73.79-83.13,32.68-163.19,57.96-237.95,75.14-76.01,17.41-147.1,26.2-211.72,26.2-8.17,0-16.23-.14-24.19-.42-24.45-.86-48.24-2.8-71.26-4.67-17.6-1.43-35.79-2.91-54.14-3.9-27.52-1.55-54.76-1.56-83.3-.01-22.87,1.24-47.85,4.68-76.36,10.54-49.44,10.16-101.89,27.1-157.42,45.05-8.02,2.59-16.31,5.27-24.51,7.9-9.69,3.12-19.18,6.11-28.18,8.9-57.97,17.96-105.97,31.23-151.77,37.64-24.14,3.38-47.74,5.07-70.63,5.07Z"/><path class="cls-1" d="M553.86,1448.66c-32.83,0-64.16-3.66-93.59-10.95-31.26-7.75-58.17-19.33-82.27-35.4-20.66-13.78-39.17-30.68-58.24-53.2-11.41-13.48-22.75-29.18-35.67-49.42-21.71-34.01-40.52-71.2-55.9-110.53-16.61-42.5-29.87-89.15-39.42-138.67-5.44-28.24-9.51-57.85-13.82-89.2-7.71-56.1-15.68-114.12-32.73-174.81-4.72-17.02-9.53-32.3-14.68-46.7-23.2-64.82-68.67-155.17-153.6-217.47-6.11-4.49-12.47-8.83-18.89-12.89-22.18-14.04-46.08-25.38-71.03-33.7-25.71-8.57-52.04-13.75-78.25-15.4-50.65-3.18-101.8,6.46-147.91,27.87-98.66,45.82-156.97,140.23-141.8,229.6l-1.7,.29c-3.92-23.11-3.12-46.72,2.37-70.18,5.24-22.37,14.64-44.22,27.95-64.94,26.02-40.52,65.95-74.73,112.45-96.33,22.95-10.66,47.35-18.47,72.55-23.23,25.27-4.77,50.9-6.39,76.19-4.8,26.36,1.66,52.83,6.87,78.69,15.49,25.09,8.36,49.11,19.76,71.41,33.88,6.46,4.09,12.85,8.45,18.99,12.96,35.97,26.38,67.91,59.98,94.93,99.86,23.77,35.08,43.71,74.92,59.27,118.42,5.17,14.44,9.98,29.75,14.72,46.82,17.09,60.8,25.06,118.88,32.78,175.04,4.3,31.33,8.37,60.91,13.8,89.11,9.53,49.42,22.76,95.97,39.33,138.37,15.33,39.23,34.09,76.32,55.74,110.23,12.88,20.17,24.17,35.82,35.53,49.24,18.96,22.39,37.35,39.19,57.88,52.88,23.93,15.96,50.66,27.46,81.73,35.16,42.13,10.44,88.22,13.41,136.99,8.8,52.39-4.95,109.27-20.56,152.96-33.62,9.19-2.74,18.72-5.68,28.33-8.72,17.68-5.59,35.4-11.4,52.55-17.01,45.57-14.92,88.61-29.02,129.45-38.97,28.79-7.02,53.75-11.69,76.31-14.3,29.39-3.39,56.74-5.39,83.61-6.1,18.54-.54,36.96-.64,54.77-.75,23.09-.13,46.97-.27,71.41-1.35,71.43-3.14,150.37-16.67,234.61-40.22,74.39-20.86,153.64-49.36,235.56-84.72,51.77-22.18,106.77-48.04,168.16-79.04,24.94-12.59,50.51-25.34,75.24-37.67,109.19-54.43,222.1-110.71,326.28-176.17,28.06-17.63,54.58-38.48,80.22-58.64,13.55-10.65,27.55-21.66,41.62-32.06,8.27-6.12,16.65-12.37,24.75-18.42,27.54-20.56,56.01-41.82,85.48-61.42,39.28-26.13,73.22-44.23,106.82-56.97,20.51-7.78,41.05-13.51,61.03-17.02,22.04-3.88,44.23-5.21,65.96-3.97,38.26,2.18,75.62,11.88,114.21,29.65,38.52,17.73,72.15,41.03,94.1,57.01,12.83,9.34,24.97,18.89,39.25,30.35,9.1,7.31,18.27,14.82,27.15,22.09,6.61,5.41,13.44,11.01,20.22,16.5,36.33,29.31,67.95,52.6,99.51,73.31,37.56,24.64,75.52,45.87,112.84,63.09,42.22,19.48,85.11,34.54,127.47,44.75,83.81,20.27,170.58,18.51,254.5,16.81,16.81-.34,34.19-.69,51.07-.85,62.19-.57,122.99,4.34,181.8,9.09,42.23,3.41,85.9,6.94,128.63,8.25,37.69,1.08,76.67,1.66,115.83,1.72,62.78,.16,128.31-1.11,200.34-3.89,43.79-1.62,87.17-3.59,133.11-5.67,33.21-1.51,67.55-3.06,101.85-4.47,137.61-5.31,284.29-9.34,424.62-2.94,9.64,.44,19.34,.94,28.82,1.49,57.05,3.38,111.3,8.73,161.26,15.88l-.25,1.71c-49.91-7.15-104.12-12.49-161.12-15.87-9.48-.55-19.17-1.05-28.8-1.49-51.22-2.33-103.32-3.28-155.48-3.28-90.69,0-181.65,2.85-268.98,6.22-34.3,1.4-68.64,2.96-101.85,4.47-45.94,2.08-89.32,4.05-133.12,5.67-72.05,2.78-137.61,4.05-200.41,3.89-39.18-.06-78.17-.64-115.88-1.72-42.78-1.31-86.47-4.84-128.72-8.25-58.77-4.75-119.53-9.66-181.64-9.09-16.87,.16-34.25,.51-51.05,.85-84.03,1.7-170.92,3.46-254.94-16.86-42.48-10.24-85.47-25.33-127.79-44.86-37.4-17.26-75.44-38.53-113.06-63.22-31.6-20.74-63.27-44.06-99.64-73.41-6.78-5.49-13.62-11.09-20.23-16.5-8.87-7.26-18.04-14.77-27.14-22.08-14.26-11.45-26.38-20.98-39.18-30.3-45.71-33.28-75.43-48.38-93.81-56.84-38.39-17.68-75.54-27.32-113.58-29.49-21.6-1.23-43.66,.09-65.56,3.95-19.87,3.5-40.3,9.19-60.71,16.93-33.47,12.69-67.3,30.74-106.47,56.79-29.43,19.57-57.88,40.82-85.4,61.37-8.1,6.05-16.47,12.3-24.75,18.42-14.04,10.39-28.04,21.39-41.58,32.03-25.68,20.19-52.23,41.06-80.37,58.74-104.25,65.51-217.2,121.81-326.43,176.26-24.72,12.33-50.29,25.07-75.23,37.66-61.42,31.02-116.46,56.89-168.26,79.08-81.99,35.39-161.31,63.91-235.78,84.79-84.37,23.59-163.43,37.14-235,40.28-24.48,1.07-48.37,1.21-71.48,1.35-17.8,.1-36.21,.21-54.73,.75-26.82,.71-54.12,2.7-83.46,6.09-22.49,2.6-47.38,7.26-76.1,14.26-40.78,9.94-83.79,24.03-129.32,38.94-17.15,5.62-34.88,11.42-52.56,17.02-9.62,3.05-19.16,5.99-28.35,8.73-43.77,13.08-100.75,28.72-153.29,33.68-14.92,1.41-29.59,2.11-43.98,2.11Z"/><path class="cls-1" d="M545.69,1472.32c-18.37,0-36.41-1.2-53.85-3.59-22.03-3.02-43.19-7.95-62.9-14.64-30.8-10.46-56.77-24.85-79.39-43.99-19.09-16.15-35.73-35.5-52.36-60.91-9.86-15.06-19.1-31.83-29.97-54.39-36.02-74.77-59.59-160.09-72.03-260.84-3.01-24.36-5.16-49.45-7.44-76.01-5.36-62.52-10.91-127.17-28.45-195.01-4.4-17.24-9-32.83-14.08-47.67-22.38-65.49-67.44-156.98-155.06-221-6.21-4.55-12.67-8.94-19.19-13.05-22.5-14.21-46.73-25.71-72.01-34.18-26.13-8.75-52.86-14.07-79.44-15.82-51.3-3.37-103.26,6.17-150.26,27.58-100.24,45.65-159.9,139.79-145.09,228.93l-1.81,.3c-3.85-23.18-2.89-46.84,2.86-70.31,5.47-22.33,15.17-44.14,28.84-64.82,26.62-40.28,67.26-74.3,114.45-95.79,23.36-10.64,48.16-18.42,73.73-23.13,25.72-4.74,51.76-6.29,77.41-4.61,26.75,1.76,53.63,7.11,79.91,15.91,25.42,8.51,49.78,20.08,72.41,34.37,6.56,4.14,13.06,8.56,19.3,13.12,88,64.3,133.25,156.15,155.72,221.89,5.09,14.89,9.71,30.53,14.12,47.81,17.58,67.99,23.13,132.71,28.5,195.31,2.28,26.54,4.43,51.62,7.43,75.94,12.42,100.55,35.93,185.69,71.87,260.27,10.83,22.48,20.04,39.19,29.85,54.18,16.53,25.25,33.05,44.48,52,60.51,22.45,18.99,48.22,33.27,78.8,43.65,19.59,6.65,40.64,11.55,62.55,14.56,24.05,3.3,49.25,4.32,74.89,3.04,42.43-2.12,91.49-11.54,154.4-29.65,9.31-2.68,18.9-5.56,28.49-8.56,26.93-8.41,53.57-17.41,79.34-26.12,36-12.17,70-23.66,102.56-32.86,29.13-8.23,54-14.12,76.02-18.03,30.62-5.43,58.01-9.42,83.74-12.21,18.74-2.07,37.38-3.78,55.41-5.44,23.17-2.12,47.13-4.32,71.59-7.32,72.12-8.84,150.76-27.25,233.72-54.71,74.1-24.58,152.63-56.33,233.4-94.36,51.25-23.97,105.74-51.56,166.57-84.33,25.91-13.96,52.48-28.09,78.18-41.75,106.99-56.89,217.63-115.72,319.78-182.86,29.17-19.18,56.79-41.53,83.49-63.15,14.05-11.37,28.57-23.13,43.14-34.28,8.72-6.67,17.55-13.5,26.09-20.09,28.49-22.02,57.95-44.78,88.48-65.81,40.8-28.11,76.19-47.6,111.35-61.33,21.46-8.38,42.96-14.55,63.92-18.33,23.12-4.17,46.42-5.59,69.26-4.23,40.21,2.39,79.35,12.91,119.68,32.14,30.62,14.6,61.73,34.17,97.92,61.56,14.25,10.79,28,22.11,40.73,32.73,9.11,7.6,18.29,15.41,27.16,22.96,7.18,6.1,14.6,12.41,21.95,18.59,36.94,30.92,70.77,56.66,103.44,78.7,39.04,26.34,78.66,48.99,117.75,67.31,44.15,20.69,89.12,36.57,133.66,47.19,91.91,21.99,187.11,18.37,279.18,14.88,13.73-.52,27.93-1.06,41.76-1.5,60.08-1.89,119.03,.66,176.04,3.13,44.99,1.95,91.51,3.96,136.94,3.63,37.86-.34,76.02-1.19,116.65-2.59,60.09-2.01,125.99-5.44,201.48-10.47,25.32-1.65,51.35-3.43,76.53-5.15,51.87-3.54,105.51-7.2,159.59-10.25,119.25-6.46,275.54-12.76,426.88-4.06,9.69,.56,19.44,1.19,28.97,1.88,57.36,4.23,111.81,10.8,161.85,19.54l-.32,1.81c-49.98-8.73-104.37-15.3-161.67-19.52-9.52-.69-19.26-1.32-28.94-1.88-151.25-8.7-307.47-2.4-426.68,4.06-54.07,3.06-107.7,6.71-159.57,10.25-25.18,1.72-51.21,3.49-76.53,5.15-75.51,5.04-141.43,8.46-201.54,10.47-40.65,1.4-78.82,2.24-116.7,2.59-45.48,.32-92.02-1.69-137.03-3.64-56.98-2.47-115.9-5.02-175.91-3.13-13.82,.43-28.02,.97-41.75,1.49-34.39,1.3-69.22,2.63-104.15,2.63-58.72,0-117.74-3.73-175.52-17.56-44.66-10.65-89.74-26.57-134.01-47.32-39.17-18.36-78.87-41.05-117.99-67.45-32.72-22.08-66.61-47.86-103.59-78.82-7.36-6.19-14.79-12.5-21.96-18.6-8.88-7.55-18.05-15.35-27.15-22.95-12.71-10.61-26.44-21.91-40.66-32.68-36.08-27.32-67.1-46.82-97.6-61.37-40.11-19.13-79.03-29.59-119-31.97-22.7-1.35-45.85,.06-68.83,4.21-20.83,3.76-42.22,9.89-63.57,18.23-35.03,13.68-70.29,33.11-110.97,61.13-30.49,21-59.93,43.75-88.4,65.76-8.54,6.6-17.37,13.42-26.09,20.1-14.55,11.14-29.07,22.89-43.1,34.25-26.74,21.65-54.39,44.03-83.64,63.26-102.22,67.19-212.89,126.04-319.92,182.94-25.69,13.66-52.26,27.79-78.17,41.74-60.86,32.79-115.38,60.4-166.66,84.38-80.84,38.06-159.43,69.83-233.6,94.44-83.08,27.49-161.84,45.93-234.08,54.79-24.48,3-48.46,5.2-71.64,7.32-18.02,1.65-36.66,3.36-55.38,5.43-25.69,2.78-53.04,6.77-83.62,12.19-21.96,3.9-46.77,9.78-75.84,17.99-32.52,9.18-66.5,20.67-102.48,32.83-25.77,8.71-52.43,17.72-79.38,26.14-9.61,3.01-19.21,5.89-28.53,8.57-63.05,18.15-112.25,27.59-154.82,29.72-7.16,.36-14.3,.54-21.37,.54Z"/><path class="cls-1" d="M533.77,1497.02c-49.03,0-96.05-9.17-136.16-26.56-30.38-13.17-55.4-30.38-76.5-52.59-17.62-18.55-32.39-40.35-46.48-68.6-8.24-16.52-15.72-34.82-24.26-59.36-26.61-76.43-42.56-165.56-48.76-272.47-1.17-20.21-1.87-40.7-2.62-62.39-2.37-69.08-4.81-140.51-22.61-215.63-4.09-17.47-8.49-33.38-13.47-48.65-14.46-44.31-34.26-85.36-58.86-122.01-27.39-40.79-60.25-75.28-97.66-102.52-6.31-4.6-12.86-9.04-19.49-13.22-22.83-14.38-47.39-26.04-72.99-34.66-26.54-8.93-53.67-14.4-80.64-16.24-25.85-1.77-52.15-.29-78.15,4.39-25.78,4.64-50.84,12.34-74.46,22.89-101.82,45.47-162.84,139.34-148.39,228.27l-1.93,.31c-3.78-23.26-2.65-46.96,3.36-70.43,5.71-22.3,15.7-44.07,29.72-64.69,27.21-40.04,68.57-73.86,116.45-95.25,23.77-10.62,48.97-18.36,74.91-23.03,26.17-4.71,52.62-6.19,78.63-4.42,27.13,1.86,54.43,7.36,81.13,16.34,25.75,8.66,50.45,20.39,73.41,34.85,6.67,4.19,13.26,8.67,19.6,13.29,37.6,27.37,70.62,62.03,98.14,103.01,24.7,36.79,44.58,78.01,59.1,122.49,5,15.32,9.42,31.29,13.52,48.81,17.85,75.3,20.3,146.83,22.66,216.01,.74,21.68,1.44,42.16,2.61,62.34,6.19,106.73,22.1,195.69,48.65,271.94,8.51,24.45,15.97,42.69,24.17,59.13,14,28.07,28.67,49.72,46.15,68.13,20.91,22.02,45.73,39.08,75.86,52.14,40.55,17.58,88.23,26.72,137.89,26.39,43.51-.28,94.49-8.68,155.84-25.68,9.42-2.61,19.06-5.43,28.66-8.39,35.99-11.09,70.99-23.5,104.84-35.5,26.9-9.54,52.32-18.55,76.95-26.47,30.16-9.69,54.22-16.6,75.73-21.75,33.62-8.05,59.48-13.7,83.86-18.32,18.96-3.63,37.85-6.96,56.13-10.18,23.23-4.09,47.24-8.32,71.69-13.23,72.86-14.63,151.2-37.91,232.84-69.2,73.81-28.34,151.61-63.33,231.24-104,50.74-25.76,104.71-55.08,164.99-89.63,26.68-15.29,54.04-30.77,80.5-45.74,104.97-59.39,213.51-120.8,313.89-189.63,30.26-20.75,58.97-44.6,86.74-67.67,14.55-12.09,29.6-24.59,44.69-36.49,9.16-7.22,18.43-14.61,27.39-21.75,29.46-23.48,59.92-47.75,91.53-70.22,42.33-30.09,79.15-50.96,115.88-65.69,22.4-8.99,44.88-15.59,66.81-19.64,24.2-4.46,48.61-5.97,72.56-4.49,42.15,2.6,83.09,13.93,125.15,34.64,31.92,15.71,64.25,36.72,101.73,66.11,14.93,11.71,29.12,23.8,42.22,35.11,9.16,7.91,18.38,16.03,27.31,23.88,7.7,6.77,15.66,13.77,23.56,20.64,38.06,32.93,73.18,60.44,107.38,84.09,40.53,28.04,81.8,52.1,122.65,71.52,46.09,21.9,93.14,38.6,139.84,49.63,100.86,23.89,205.34,18.07,306.38,12.44,9.83-.55,19.99-1.11,29.92-1.64,57.24-3.02,113.61-2.65,168.11-2.29,50.7,.33,98.58,.65,147.41-1.52,37.42-1.73,75.84-3.98,117.47-6.89,73.17-5.05,146.72-11.76,202.62-17.05,9.44-.88,18.9-1.76,28.39-2.65,67.71-6.34,137.72-12.89,208.89-18.01,171.45-11.95,307.82-13.59,429.16-5.17,9.74,.68,19.53,1.44,29.11,2.27,57.69,5.07,112.34,12.88,162.44,23.21l-.39,1.91c-50.03-10.31-104.61-18.11-162.22-23.17-9.57-.83-19.35-1.59-29.08-2.27-121.24-8.41-257.53-6.77-428.88,5.17-71.15,5.12-141.15,11.67-208.84,18-9.49,.89-18.95,1.77-28.39,2.65-55.92,5.29-129.48,12-202.67,17.05-41.64,2.91-80.09,5.16-117.52,6.89-48.88,2.17-96.79,1.85-147.51,1.52-54.48-.36-110.81-.73-168,2.29-9.92,.52-20.08,1.09-29.91,1.64-44.51,2.48-89.71,4.99-134.97,4.99-57.61,0-115.33-4.07-171.97-17.49-46.83-11.06-94.01-27.81-140.23-49.77-40.94-19.46-82.3-43.57-122.92-71.67-34.25-23.7-69.43-51.24-107.54-84.22-7.91-6.87-15.87-13.87-23.57-20.65-8.92-7.85-18.15-15.96-27.3-23.87-13.08-11.3-27.24-23.37-42.14-35.05-37.38-29.3-69.59-50.24-101.39-65.89-41.83-20.59-82.52-31.85-124.41-34.44-23.79-1.47-48.05,.03-72.09,4.47-21.8,4.02-44.15,10.59-66.43,19.53-36.58,14.67-73.28,35.48-115.48,65.47-31.57,22.44-62,46.7-91.44,70.16-8.96,7.14-18.23,14.53-27.4,21.76-15.07,11.89-30.11,24.38-44.65,36.46-27.8,23.1-56.55,46.98-86.88,67.78-100.44,68.88-209.02,130.31-314.03,189.72-26.46,14.97-53.82,30.45-80.49,45.74-60.31,34.57-114.3,63.9-165.07,89.68-79.69,40.7-157.55,75.72-231.43,104.08-81.75,31.32-160.19,54.63-233.16,69.29-24.47,4.91-48.49,9.15-71.73,13.24-18.27,3.22-37.16,6.55-56.1,10.18-24.35,4.61-50.19,10.26-83.77,18.3-21.46,5.14-45.48,12.04-75.59,21.71-24.61,7.91-50.01,16.91-76.9,26.45-33.87,12.01-68.89,24.43-104.92,35.53-9.61,2.97-19.27,5.8-28.71,8.41-61.52,17.05-112.66,25.47-156.35,25.75-.84,0-1.68,0-2.52,0Z"/><path class="cls-1" d="M518.25,1522.47c-4.3,0-8.55-.08-12.74-.23-50.86-1.83-99.01-14.08-139.24-35.42-29.99-15.9-54.07-35.93-73.59-61.21-16.22-21-29.13-45.24-40.62-76.29-6.69-18.07-12.41-37.9-18.56-64.32-9.38-40.31-15.96-83.53-20.12-132.14-3.85-45.03-5.61-94.74-5.37-151.96,.07-15.7,.34-31.42,.63-48.05,.64-37.21,1.31-75.69-.42-115.34-1.96-44.9-6.79-84.68-14.78-121.62-3.78-17.71-7.99-33.94-12.87-49.63-13.95-44.82-33.72-86.54-58.75-124-27.63-41.33-61.01-76.34-99.24-104.06-6.41-4.65-13.07-9.15-19.79-13.38-23.16-14.55-48.04-26.37-73.97-35.13-26.96-9.11-54.49-14.72-81.84-16.66-26.2-1.86-52.9-.45-79.35,4.2-26.15,4.59-51.59,12.26-75.62,22.79-103.4,45.3-165.78,138.89-151.69,227.61l-2.04,.32c-3.71-23.34-2.41-47.08,3.85-70.56,5.94-22.27,16.24-44,30.61-64.56,27.81-39.79,69.87-73.43,118.44-94.71,24.18-10.59,49.78-18.31,76.09-22.93,26.62-4.67,53.48-6.1,79.85-4.22,27.52,1.96,55.23,7.6,82.35,16.77,26.08,8.82,51.12,20.71,74.41,35.34,6.77,4.25,13.46,8.77,19.91,13.45,38.42,27.86,71.98,63.04,99.74,104.58,25.15,37.62,45,79.52,59.01,124.53,4.9,15.75,9.13,32.04,12.92,49.81,8.01,37.05,12.86,76.95,14.83,121.97,1.73,39.71,1.06,78.23,.42,115.47-.29,16.63-.56,32.33-.63,48.02-.24,57.16,1.51,106.81,5.36,151.77,4.15,48.51,10.72,91.63,20.08,131.84,6.13,26.33,11.83,46.09,18.48,64.07,11.42,30.84,24.23,54.91,40.31,75.74,19.34,25.04,43.19,44.88,72.92,60.64,39.96,21.19,87.8,33.35,138.35,35.18,44.92,1.62,96.37-5.48,157.27-21.71,9.5-2.53,19.19-5.3,28.82-8.23,44.89-13.64,87.66-29.77,129.01-45.38,18.33-6.91,35.64-13.45,52.67-19.59,22.75-8.2,49.5-17.64,75.44-25.48,30.04-9.07,57.09-17.17,83.99-24.43,19.22-5.22,38.41-10.2,56.97-15.02,23.24-6.03,47.28-12.27,71.67-19.06,73.64-20.51,151.68-48.67,231.96-83.69,73.53-32.13,150.61-70.37,229.08-113.65,50.24-27.55,103.69-58.6,163.4-94.93,27.3-16.6,55.29-33.42,82.37-49.68,103.07-61.91,209.65-125.93,308.46-196.46,31.31-22.35,61.13-47.69,89.97-72.2,15.07-12.81,30.65-26.05,46.25-38.7,9.59-7.77,19.29-15.72,28.67-23.41,30.43-24.94,61.9-50.72,94.59-74.63,43.85-32.07,82.11-54.33,120.41-70.06,23.35-9.59,46.8-16.64,69.69-20.95,25.28-4.76,50.8-6.36,75.87-4.76,44.1,2.81,86.83,14.96,130.62,37.13,33.23,16.82,66.76,39.27,105.55,70.66,15.61,12.63,30.23,25.48,43.7,37.49,9.22,8.23,18.52,16.66,27.51,24.81,8.21,7.44,16.69,15.14,25.12,22.68,38.65,34.46,75.06,63.73,111.31,89.49,42.23,29.77,85.16,55.23,127.59,75.67,48.1,23.17,97.21,40.71,145.98,52.12,56.11,13.17,113.26,17.49,170.4,17.49s111.43-4.11,166.25-8.16c5.02-.37,10.02-.74,15.02-1.11,53.32-3.9,106-5.44,156.95-6.93,55.46-1.62,107.85-3.15,161.12-7.46,36.87-3.05,75.56-6.71,118.29-11.19,64.58-6.72,127.81-14.35,203.76-23.63,83.63-10.1,159.29-19.02,238.43-25.92,78.22-6.65,148.53-10.56,214.95-11.96,77.23-1.62,150.06,.29,216.48,5.67,9.79,.8,19.63,1.69,29.26,2.66,58.03,5.92,112.88,14.96,163.03,26.87l-.48,2.01c-50.06-11.89-104.83-20.91-162.76-26.82-9.61-.96-19.44-1.86-29.22-2.65-66.35-5.38-139.11-7.29-216.27-5.67-66.38,1.4-136.65,5.3-214.82,11.95-79.11,6.9-154.75,15.82-238.36,25.92-75.96,9.28-139.2,16.9-203.8,23.63-42.74,4.49-81.45,8.15-118.34,11.2-53.33,4.32-105.74,5.85-161.23,7.47-50.92,1.49-103.58,3.02-156.86,6.92-5,.36-10,.74-15.02,1.11-54.85,4.05-110.63,8.16-166.41,8.17-57.28,0-114.55-4.34-170.86-17.55-48.92-11.45-98.17-29.04-146.41-52.27-42.54-20.49-85.57-46.01-127.89-75.85-36.32-25.8-72.79-55.12-111.5-89.63-8.43-7.54-16.92-15.24-25.13-22.69-8.99-8.15-18.28-16.58-27.49-24.8-13.45-11.99-28.05-24.82-43.62-37.43-38.67-31.29-72.09-53.66-105.18-70.42-43.54-22.05-86.01-34.12-129.82-36.91-24.9-1.59-50.25,0-75.35,4.73-22.76,4.28-46.07,11.29-69.29,20.83-38.14,15.67-76.27,37.85-119.98,69.81-32.65,23.87-64.09,49.64-94.5,74.56-9.38,7.69-19.09,15.64-28.68,23.42-15.58,12.64-31.15,25.87-46.21,38.67-28.87,24.54-58.73,49.91-90.11,72.31-98.87,70.58-205.49,134.62-308.6,196.55-27.07,16.26-55.06,33.07-82.36,49.67-59.74,36.34-113.22,67.41-163.48,94.97-78.53,43.31-155.66,81.57-229.25,113.73-80.37,35.06-158.5,63.25-232.24,83.78-24.41,6.8-48.45,13.04-71.7,19.07-18.55,4.81-37.74,9.79-56.95,15.01-26.88,7.25-53.91,15.34-83.93,24.41-25.9,7.82-52.62,17.25-75.33,25.44-17.02,6.14-34.33,12.67-52.65,19.58-41.39,15.61-84.18,31.76-129.14,45.42-9.65,2.94-19.37,5.71-28.89,8.25-55.43,14.77-103.08,22.01-145.14,22.01Z"/><path class="cls-1" d="M501.12,1548.46c-9.07,0-17.86-.33-26.39-.99-51.83-4.02-100.17-19.34-139.8-44.29-29.63-18.65-52.74-41.49-70.66-69.82-14.87-23.51-25.91-50.19-34.76-83.97-5.16-19.71-9.13-41.08-12.85-69.28-12.44-94.2-8.42-197.8-2.22-295.72,.68-10.78,1.45-21.95,2.2-32.74,2.8-40.68,5.7-82.76,5.69-126.15-.01-49.15-3.88-92.7-11.82-133.12-3.48-17.96-7.49-34.51-12.27-50.6-28.36-95.54-84.99-177.78-159.45-231.58-6.51-4.71-13.27-9.26-20.09-13.54-23.48-14.72-48.7-26.7-74.95-35.61-27.37-9.29-55.31-15.04-83.03-17.08-26.5-1.95-53.59-.59-80.53,4.04-26.45,4.55-52.29,12.17-76.8,22.65-48.91,21.13-91.35,54.34-119.5,93.5-30.23,42.07-42.5,88.21-35.48,133.44l-2.16,.33c-7.11-45.81,5.29-92.51,35.87-135.05,28.38-39.48,71.14-72.95,120.41-94.24,24.67-10.55,50.68-18.21,77.29-22.79,27.11-4.66,54.38-6.03,81.06-4.07,27.91,2.06,56.03,7.84,83.57,17.19,26.41,8.97,51.78,21.02,75.41,35.83,6.87,4.3,13.67,8.88,20.21,13.62,39.23,28.34,73.33,64.06,101.34,106.16,25.57,38.43,45.4,81.01,58.92,126.57,4.8,16.16,8.83,32.78,12.32,50.81,7.97,40.56,11.84,84.24,11.86,133.54,.01,43.47-2.89,85.58-5.7,126.3-.74,10.79-1.51,21.95-2.2,32.73-6.19,97.81-10.21,201.28,2.21,295.3,3.71,28.11,7.66,49.4,12.8,69.02,12.67,48.36,35.99,109.39,104.47,152.5,27.43,17.27,73.77,38.91,138.81,43.96,45.51,3.53,98.91-2.44,158.7-17.75,9.58-2.45,19.33-5.16,28.98-8.06,53.63-16.07,103.52-36.33,151.78-55.91,10.31-4.18,20.05-8.14,29.79-12.04,23.63-9.45,50.4-20.17,75.15-29.2,8.34-3.04,16.54-6.06,24.48-8.97,20.7-7.61,40.25-14.79,59.64-21.55,19.52-6.86,39.06-13.53,57.95-19.98,23.21-7.93,47.22-16.12,71.5-24.76,74.48-26.5,152.22-59.53,231.08-98.18,73.25-35.96,149.6-77.44,226.92-123.29,49.73-29.34,102.66-62.12,161.82-100.22,27.8-17.9,56.3-36.04,83.86-53.58,101.27-64.45,205.99-131.09,303.4-203.33,32.33-23.98,63.27-50.8,93.19-76.74,15.59-13.52,31.71-27.49,47.83-40.89,10.01-8.32,20.13-16.82,29.92-25.05,31.42-26.4,63.9-53.71,97.69-79.06,45.37-34.04,85.07-57.69,124.95-74.42,24.29-10.19,48.71-17.68,72.58-22.25,26.35-5.05,52.99-6.74,79.17-5.02,23.93,1.57,48.04,5.99,71.64,13.13,21.34,6.46,43.02,15.37,64.45,26.5,34.53,17.93,69.28,41.83,109.36,75.2,16.34,13.61,32.01,27.79,45.18,39.87,9.31,8.54,18.69,17.29,27.76,25.75,8.7,8.11,17.69,16.49,26.62,24.7,39.87,36.53,77.57,67.57,115.25,94.88,43.7,31.46,88.28,58.34,132.5,79.89,50.03,24.38,101.22,42.73,152.16,54.56,54.17,12.6,114.31,18.34,183.85,17.54,62.88-.72,126.79-6.65,183.17-11.89,47.66-4.42,94.94-7.43,140.66-10.34,62.01-3.94,120.58-7.67,179.96-14.62,36.23-4.3,75.19-9.37,119.11-15.5,51.69-7.17,102.72-14.85,156.74-22.98,15.75-2.37,32.03-4.82,48.17-7.23,75.63-11.2,156.99-22.74,239.59-31.18,166.04-16.65,307.91-19.07,433.71-7.4,9.84,.92,19.73,1.94,29.4,3.05,58.38,6.76,113.43,17.04,163.63,30.53l-.57,2.11c-50.09-13.47-105.04-23.72-163.31-30.47-9.66-1.1-19.53-2.13-29.35-3.04-51.91-4.81-106.59-7.23-164.56-7.23-82.35,0-171.36,4.86-268.72,14.62-82.55,8.44-163.89,19.97-239.49,31.17-16.14,2.41-32.42,4.86-48.16,7.23-54.03,8.13-105.06,15.8-156.76,22.98-43.94,6.13-82.91,11.2-119.16,15.51-59.44,6.96-118.03,10.68-180.07,14.63-45.7,2.91-92.96,5.91-140.59,10.33-56.43,5.24-120.38,11.17-183.35,11.9-4.25,.05-8.47,.07-12.64,.07-64.41,0-120.69-5.8-171.73-17.67-51.1-11.86-102.45-30.27-152.62-54.72-44.33-21.6-89.01-48.54-132.82-80.08-37.75-27.36-75.51-58.45-115.45-95.04-8.94-8.21-17.93-16.6-26.63-24.71-9.07-8.46-18.45-17.2-27.75-25.74-13.15-12.06-28.8-26.22-45.11-39.8-59.67-49.68-141.35-107.58-244.2-114.33-25.99-1.71-52.44-.03-78.61,4.99-23.72,4.55-48,11.99-72.15,22.12-39.7,16.66-79.26,40.22-124.48,74.15-33.74,25.31-66.2,52.6-97.6,78.98-9.79,8.23-19.91,16.74-29.93,25.06-16.1,13.39-32.21,27.36-47.79,40.87-29.95,25.97-60.92,52.82-93.32,76.84-97.47,72.28-202.23,138.95-303.53,203.42-27.56,17.54-56.06,35.68-83.85,53.57-59.18,38.12-112.14,70.91-161.89,100.27-77.37,45.88-153.77,87.39-227.08,123.37-78.93,38.69-156.76,71.75-231.31,98.28-24.29,8.64-48.3,16.84-71.52,24.77-18.89,6.45-38.42,13.12-57.94,19.97-19.37,6.76-38.92,13.94-59.61,21.54-7.94,2.92-16.15,5.93-24.49,8.98-24.71,9.02-51.47,19.73-75.08,29.17-9.74,3.9-19.48,7.85-29.79,12.03-48.3,19.61-98.25,39.88-151.97,55.98-9.68,2.91-19.46,5.63-29.07,8.08-48.84,12.5-93.45,18.8-133.02,18.8Z"/><path class="cls-1" d="M483.82,1574.96c-13.81,0-27.11-.75-39.87-2.26-66.73-7.89-113.16-33.26-140.36-53.16-29.27-21.41-51.42-47.07-67.71-78.44-13.35-25.71-22.81-55.69-28.91-91.65-3.59-21.16-5.86-44.76-7.15-74.25-1.88-43.12-.63-89.65,3.91-146.42,3.96-49.51,9.84-100.02,17.12-160.92,.64-5.38,1.3-10.8,1.96-16.24,5.36-44.34,10.9-90.2,12.94-137.54,2.31-53.64-.36-101.14-8.17-145.22-3.14-17.96-7.07-35.31-11.67-51.58-27.32-96.57-84.47-180.07-160.91-235.1-6.6-4.76-13.46-9.37-20.39-13.7-23.81-14.89-49.36-27.03-75.93-36.09-27.79-9.47-56.13-15.36-84.23-17.5-26.85-2.04-54.35-.75-81.72,3.85-26.81,4.5-53.04,12.09-77.96,22.54-49.59,21.01-92.73,54.02-121.45,92.94-30.96,41.94-43.69,88.06-36.83,133.35l-2.27,.34c-6.96-45.91,5.92-92.61,37.25-135.06,28.96-39.24,72.44-72.51,122.41-93.69,25.09-10.53,51.49-18.16,78.47-22.69,27.56-4.63,55.24-5.93,82.28-3.88,28.3,2.16,56.83,8.08,84.8,17.62,26.74,9.11,52.45,21.33,76.41,36.32,6.97,4.35,13.87,8.99,20.52,13.78,40.04,28.83,74.68,65.07,102.95,107.73,25.99,39.22,45.79,82.49,58.84,128.61,4.62,16.34,8.57,33.77,11.72,51.81,7.84,44.25,10.53,91.91,8.2,145.72-2.05,47.43-7.59,93.33-12.95,137.72-.66,5.44-1.31,10.85-1.95,16.24-7.28,60.87-13.16,111.37-17.11,160.83-4.54,56.68-5.78,103.12-3.91,146.14,1.28,29.39,3.54,52.9,7.12,73.96,6.06,35.72,15.45,65.48,28.69,90.98,16.12,31.04,38.04,56.44,67.02,77.64,26.98,19.73,73.04,44.9,139.27,52.73,46.6,5.51,100.48,.87,160.13-13.79,9.66-2.37,19.46-5.02,29.14-7.89,62.18-18.38,121.09-44.34,173.06-67.24,2.81-1.24,5.61-2.47,8.39-3.7,8.59-3.78,17.11-7.56,25.35-11.21,17.23-7.64,33.5-14.86,49.5-21.7,15.03-6.44,29.54-12.79,43.56-18.94,14.04-6.15,27.3-11.97,40.68-17.69,19.92-8.56,39.89-16.99,59.2-25.14,23.1-9.76,46.99-19.84,71.08-30.26,75.38-32.6,152.83-70.51,230.2-112.68,72.98-39.83,148.6-84.55,224.77-132.94,49.22-31.13,101.63-65.64,160.23-105.52,28.21-19.19,57.12-38.65,85.08-57.47,99.54-66.99,202.48-136.27,298.63-210.22,33.32-25.63,65.38-53.92,96.39-81.29,16.12-14.22,32.78-28.93,49.42-43.09,10.42-8.86,20.96-17.93,31.15-26.69,32.41-27.87,65.91-56.69,100.8-83.48,46.89-36.02,88.04-61.05,129.48-78.78,25.24-10.8,50.63-18.72,75.47-23.57,27.43-5.34,55.18-7.12,82.47-5.28,24.95,1.68,50.05,6.38,74.6,13.97,22.19,6.86,44.72,16.33,66.96,28.15,35.84,19.05,71.81,44.39,113.18,79.75,17.03,14.55,33.15,29.53,46.67,42.25,9.41,8.86,18.89,17.93,28.06,26.7,9.17,8.77,18.65,17.84,28.07,26.71,41.09,38.6,80.08,71.4,119.18,100.27,45.18,33.16,91.41,61.46,137.4,84.1,51.96,25.58,105.23,44.76,158.34,56.99,123.5,28.5,251.35,17.72,382.38,3.08,39.02-4.36,77.91-8.1,115.52-11.71,71.64-6.89,139.31-13.39,207.63-23.82,35.96-5.54,74.07-11.84,119.93-19.8,38.67-6.69,78.41-13.86,116.84-20.8,29.11-5.25,59.2-10.69,89.21-15.98,70.08-12.28,153.49-26.22,240.75-36.45,76.44-8.82,149.5-14.2,217.17-16.01,77.55-2.07,151.17,.45,218.81,7.5,9.89,1.03,19.83,2.19,29.55,3.44,58.73,7.61,113.98,19.12,164.22,34.2l-.66,2.2c-50.12-15.04-105.25-26.52-163.85-34.12-9.7-1.24-19.62-2.4-29.49-3.43-67.54-7.04-141.06-9.56-218.51-7.49-67.6,1.81-140.6,7.19-216.97,16-87.21,10.22-170.57,24.15-240.62,36.43-30,5.29-60.1,10.73-89.2,15.98-38.43,6.94-78.18,14.11-116.85,20.81-45.87,7.97-84,14.27-119.98,19.81-68.38,10.44-136.08,16.94-207.76,23.83-37.6,3.61-76.48,7.35-115.49,11.71-131.24,14.66-259.31,25.46-383.16-3.12-53.28-12.27-106.73-31.51-158.84-57.17-46.11-22.7-92.46-51.07-137.75-84.31-39.18-28.92-78.24-61.78-119.4-100.45-9.43-8.88-18.91-17.95-28.09-26.73-9.17-8.77-18.64-17.84-28.05-26.69-13.5-12.71-29.59-27.65-46.59-42.18-61.65-52.7-146.17-114.11-253.41-121.33-27.09-1.82-54.64-.06-81.88,5.25-24.68,4.81-49.92,12.69-75.01,23.42-41.27,17.65-82.25,42.59-128.99,78.49-34.83,26.76-68.32,55.55-100.7,83.4-10.2,8.77-20.74,17.83-31.16,26.7-16.62,14.14-33.28,28.84-49.39,43.06-31.03,27.39-63.12,55.71-96.51,81.38-96.21,73.99-199.17,143.29-298.75,210.3-27.96,18.81-56.86,38.27-85.07,57.46-58.62,39.89-111.05,74.42-160.29,105.56-76.21,48.41-151.87,93.17-224.9,133.02-77.43,42.2-154.95,80.14-230.39,112.77-24.09,10.42-47.99,20.51-71.09,30.27-19.31,8.15-39.27,16.58-59.18,25.14-13.38,5.72-26.63,11.53-40.67,17.68-14.03,6.15-28.54,12.51-43.58,18.95-15.98,6.84-32.25,14.06-49.47,21.69-8.24,3.65-16.76,7.43-25.36,11.22-2.78,1.22-5.58,2.46-8.39,3.7-52.04,22.93-111.02,48.91-173.34,67.34-9.72,2.88-19.56,5.54-29.25,7.92-43.61,10.71-84.17,16.1-121.08,16.1Z"/><path class="cls-1" d="M465.41,1601.83c-18.28,0-35.77-1.31-52.25-3.91-27.79-4.39-54.41-12.3-79.13-23.52-22.81-10.35-43.6-23.31-61.78-38.52-28.92-24.19-50.1-52.66-64.74-87.05-12.04-28.29-19.59-60.78-23.07-99.33-2.07-22.95-2.53-48.12-1.44-79.21,2.97-84.84,18.74-174.09,35.44-268.59,2.9-16.39,5.89-33.34,8.84-50.38,16.12-93.15,34.4-198.72,17.36-306-2.81-17.92-6.53-35.6-11.07-52.55-26.55-97.79-84.22-182.54-162.38-238.62-6.7-4.82-13.67-9.48-20.69-13.86-24.14-15.06-50.02-27.36-76.91-36.57-28.2-9.65-56.95-15.68-85.43-17.92-27.2-2.13-55.1-.9-82.92,3.66-27.17,4.46-53.79,12.01-79.12,22.44-50.28,20.9-94.11,53.7-123.41,92.37-31.68,41.82-44.88,87.9-38.16,133.25l-2.39,.35c-6.81-46.01,6.54-92.71,38.63-135.06,29.55-39,73.73-72.08,124.41-93.14,25.5-10.51,52.3-18.11,79.65-22.59,28.01-4.59,56.1-5.83,83.49-3.68,28.68,2.25,57.62,8.33,86.02,18.05,27.07,9.26,53.11,21.65,77.41,36.8,7.07,4.41,14.08,9.1,20.82,13.95,40.81,29.28,75.96,66.06,104.49,109.32,26.34,39.94,46.13,83.89,58.81,130.63,4.56,17.04,8.3,34.8,11.12,52.81,17.1,107.66-1.21,213.45-17.37,306.78-2.95,17.04-5.95,34-8.84,50.39-16.69,94.41-32.45,183.58-35.41,268.25-1.08,30.99-.63,56.06,1.43,78.91,3.46,38.3,10.95,70.55,22.89,98.61,14.49,34.02,35.44,62.2,64.07,86.14,18.01,15.06,38.61,27.91,61.23,38.17,24.52,11.13,50.93,18.98,78.51,23.33,24.4,3.85,51.04,4.84,79.18,2.94,26.23-1.78,53.95-6.07,82.37-12.76,9.74-2.29,19.6-4.89,29.31-7.73,64.52-18.82,124.96-46.83,181.34-73.92,17.85-8.57,35.07-17.1,51.73-25.35,7.88-3.9,15.33-7.59,22.83-11.28,19.3-9.49,37.77-18.94,55.63-28.08,9.89-5.06,19.23-9.84,28.74-14.65,20.44-10.37,40.98-20.67,60.83-30.64,22.86-11.48,46.51-23.34,70.26-35.43,76.36-38.85,153.51-81.64,229.32-127.18,72.71-43.73,147.61-91.7,222.61-142.59,48.71-32.92,100.6-69.17,158.64-110.82,28.54-20.48,57.78-41.25,86.05-61.34,97.87-69.54,199.08-141.45,294.1-217.12,34.29-27.3,67.48-57.06,99.58-85.84,16.65-14.93,33.87-30.37,51.03-45.27,10.57-9.18,21.26-18.56,31.6-27.63,33.67-29.54,68.49-60.09,104.7-88.61,48.63-38.01,91.23-64.42,134.06-83.09,26.18-11.41,52.54-19.8,78.33-24.91,28.51-5.65,57.36-7.53,85.76-5.57,25.96,1.79,52.06,6.77,77.56,14.82,23.05,7.27,46.42,17.3,69.47,29.8,37.15,20.16,74.33,46.95,117,84.3,17.73,15.52,34.29,31.27,48.15,44.63,9.53,9.19,19.13,18.59,28.42,27.68,9.62,9.42,19.57,19.17,29.47,28.7,42.32,40.68,82.59,75.24,123.12,105.66,46.66,34.86,94.54,64.57,142.3,88.31,53.89,26.79,109.25,46.78,164.53,59.43,57.72,13.22,116.8,18.1,175.1,18.1,77.22,0,153.07-8.55,222.64-17.59,24.58-3.2,49.25-6.29,73.11-9.28,87.34-10.95,169.84-21.29,252.58-36.82,35.09-6.63,73.46-14.29,120.75-24.11,28.98-5.99,58.65-12.27,87.34-18.34,39.06-8.26,79.44-16.81,119.85-25.02,64.91-13.12,151.07-29.72,241.91-41.71,76.34-9.95,149.78-16.02,218.28-18.04,77.8-2.3,151.81,.53,219.98,8.41,9.94,1.15,19.93,2.44,29.69,3.83,59.09,8.46,114.54,21.2,164.81,37.86l-.76,2.29c-50.14-16.62-105.45-29.32-164.4-37.77-9.74-1.38-19.71-2.67-29.63-3.82-68.05-7.87-141.95-10.7-219.63-8.4-68.42,2.02-141.78,8.09-218.04,18.02-90.77,11.98-176.88,28.57-241.75,41.69-40.39,8.21-80.77,16.75-119.83,25.02-28.7,6.07-58.37,12.35-87.35,18.35-47.31,9.82-85.69,17.48-120.8,24.12-82.82,15.55-165.35,25.89-252.73,36.85-23.86,2.99-48.53,6.08-73.1,9.28-59.13,7.69-128.98,15.76-198.77,17.33-74.6,1.68-139.96-4.16-199.82-17.88-55.47-12.69-111-32.74-165.06-59.62-47.9-23.81-95.9-53.6-142.67-88.54-40.61-30.48-80.96-65.11-123.35-105.85-9.9-9.54-19.86-19.29-29.49-28.72-9.28-9.09-18.88-18.49-28.4-27.67-13.84-13.34-30.38-29.06-48.07-44.55-63.64-55.71-150.99-120.64-262.61-128.33-28.18-1.94-56.82-.08-85.12,5.53-25.62,5.08-51.81,13.41-77.84,24.75-42.64,18.59-85.08,44.89-133.54,82.78-36.16,28.48-70.95,59.01-104.6,88.53-10.34,9.07-21.03,18.45-31.61,27.64-17.15,14.89-34.36,30.32-51,45.25-32.12,28.8-65.34,58.58-99.68,85.93-95.07,75.7-196.3,147.63-294.2,217.2-28.27,20.09-57.5,40.86-86.04,61.33-58.06,41.67-109.97,77.93-158.7,110.86-75.04,50.91-149.97,98.91-222.72,142.66-75.86,45.57-153.06,88.39-229.47,127.26-23.76,12.09-47.4,23.95-70.27,35.43-19.85,9.97-40.38,20.27-60.83,30.64-9.51,4.81-18.85,9.59-28.73,14.64-17.87,9.15-36.35,18.6-55.67,28.1-7.5,3.69-14.95,7.38-22.83,11.28-16.66,8.25-33.89,16.78-51.75,25.36-56.47,27.13-117.02,55.19-181.71,74.06-9.75,2.85-19.65,5.46-29.43,7.76-28.55,6.73-56.4,11.04-82.76,12.82-9.33,.63-18.5,.95-27.48,.95Z"/><path class="cls-1" d="M446.19,1629.05c-22.44,0-43.84-1.98-63.82-5.91-28.21-5.55-55.08-14.85-79.88-27.63-22.98-11.85-43.7-26.41-61.57-43.28-14.65-13.83-27.37-29.2-37.81-45.69-9.7-15.32-17.76-32.13-23.95-49.96-10.74-30.91-16.38-65.91-17.24-107.01-.51-24.34,.84-51.09,4.26-84.17,8.47-79.3,27.55-160,47.76-245.44,6.53-27.63,13.29-56.2,19.78-85.17,10.23-45.63,21.67-98.82,28-152.6,6.92-58.86,6.92-111.32,0-160.39-2.54-18.23-6.06-36.23-10.47-53.53-25.52-98.84-83.71-184.84-163.84-242.14-6.8-4.87-13.87-9.59-20.99-14.02-24.47-15.23-50.68-27.69-77.89-37.05-28.62-9.84-57.77-16.01-86.62-18.34-27.55-2.23-55.85-1.06-84.11,3.47-27.53,4.41-54.54,11.93-80.28,22.34-50.98,20.78-95.5,53.38-125.36,91.8-32.41,41.7-46.07,87.74-39.5,133.16l-2.5,.36c-6.67-46.11,7.17-92.82,40.01-135.07,30.13-38.76,75.02-71.65,126.41-92.59,25.92-10.48,53.11-18.05,80.83-22.49,28.46-4.56,56.96-5.73,84.71-3.49,29.07,2.35,58.42,8.57,87.24,18.47,27.39,9.41,53.77,21.96,78.41,37.29,7.17,4.46,14.28,9.21,21.13,14.11,41.62,29.76,77.31,67.07,106.1,110.9,13.45,20.47,25.3,42.32,35.24,64.93,9.64,21.92,17.54,44.72,23.48,67.75,4.43,17.39,7.97,35.49,10.52,53.81,6.95,49.28,6.95,101.95,0,161.03-6.34,53.9-17.8,107.17-28.04,152.86-6.5,28.98-13.25,57.56-19.79,85.2-20.18,85.36-39.25,165.98-47.7,245.12-3.41,32.97-4.76,59.62-4.25,83.85,1.86,88.43,26.71,152.26,78.21,200.88,17.7,16.71,38.22,31.14,60.99,42.87,24.59,12.67,51.24,21.89,79.21,27.4,24.7,4.86,51.59,6.72,79.93,5.51,26.65-1.13,54.59-4.96,83.05-11.38,9.81-2.21,19.72-4.75,29.47-7.56,66-18.99,126.1-48.18,181.22-76.9,26.53-13.82,51.89-27.92,74.27-40.35,22.18-12.33,43.36-24.74,63.84-36.74,6.79-3.98,13.8-8.09,20.67-12.09,21.22-12.39,42.56-24.78,63.21-36.76,22.38-12.99,45.53-26.43,68.7-39.97,77.42-45.25,154.28-92.92,228.44-141.68,72.45-47.67,146.62-98.89,220.45-152.24,48.2-34.71,99.57-72.69,157.06-116.12,28.82-21.77,58.31-43.86,86.83-65.22,96.25-72.09,195.77-146.62,289.75-224.01,35.22-29,69.55-60.21,102.75-90.39,17.19-15.63,34.97-31.79,52.66-47.45,11.02-9.75,22.16-19.73,32.94-29.37,34.62-30.98,70.43-63.01,107.7-92.94,50.12-39.99,94.15-67.78,138.59-87.46,27.13-12.02,54.45-20.83,81.22-26.21,29.59-5.94,59.55-7.91,89.06-5.83,26.97,1.9,54.05,7.17,80.51,15.68,23.88,7.68,48.09,18.28,71.95,31.49,50.29,27.84,93.06,64.01,120.86,88.8,14.81,13.3,30.58,28.24,49.64,47.01,9.66,9.52,19.39,19.26,28.8,28.67,10.07,10.07,20.48,20.49,30.84,30.67,43.55,42.76,85.11,79.08,127.05,111.05,102.45,77.79,209.41,129.74,317.91,154.39,62.46,14.21,130.15,20.1,206.94,18.01,59.51-1.62,123.09-7.81,206.16-20.08,102.36-15.11,218.37-32.24,328.23-56.67,44.27-9.9,88.23-20.38,121.57-28.41,21.49-5.16,43.45-10.5,64.68-15.67,46.78-11.38,95.15-23.14,143.65-34.28,95.43-21.83,170.39-36.32,243.07-46.98,76.33-11.08,150.14-17.83,219.39-20.07,78.08-2.53,152.49,.61,221.16,9.33,9.99,1.27,20.03,2.69,29.83,4.22,59.45,9.32,115.1,23.29,165.41,41.53l-.86,2.38c-50.16-18.19-105.65-32.12-164.94-41.41-9.78-1.52-19.79-2.94-29.76-4.2-129.5-16.44-277.49-12.83-439.87,10.74-72.61,10.64-147.52,25.12-242.88,46.94-48.48,11.14-96.85,22.9-143.62,34.27-21.23,5.16-43.19,10.5-64.69,15.67-33.35,8.03-77.32,18.52-121.61,28.42-109.95,24.45-226.01,41.59-328.41,56.71-83.17,12.28-146.84,18.48-206.46,20.1-10.05,.27-19.96,.41-29.71,.41-64.94,0-123.37-6.09-177.86-18.48-57.65-13.1-115.28-33.98-171.28-62.07-49.68-24.91-99.34-56.13-147.6-92.78-42.03-32.04-83.67-68.43-127.3-111.26-10.37-10.19-20.78-20.61-30.85-30.69-9.41-9.41-19.14-19.15-28.79-28.66-19.03-18.75-34.77-33.66-49.55-46.93-65.87-58.73-156.3-127.2-271.81-135.33-29.28-2.06-59.02-.12-88.39,5.78-26.59,5.34-53.74,14.11-80.7,26.05-44.24,19.59-88.1,47.28-138.04,87.12-37.22,29.88-73,61.89-107.6,92.85-10.78,9.65-21.93,19.62-32.95,29.38-17.67,15.65-35.44,31.81-52.63,47.43-33.22,30.2-67.57,61.44-102.84,90.48-94.03,77.42-193.58,151.98-289.84,224.08-28.52,21.36-58.01,43.45-86.83,65.21-57.5,43.44-108.89,81.43-157.1,116.15-73.87,53.36-148.07,104.6-220.54,152.3-74.19,48.78-151.09,96.47-228.55,141.75-23.17,13.55-46.32,26.98-68.71,39.97-20.64,11.98-41.99,24.37-63.2,36.76-6.86,4-13.88,8.11-20.66,12.09-20.49,12.01-41.68,24.43-63.89,36.77-22.39,12.44-47.77,26.54-74.33,40.38-55.24,28.78-115.48,58.04-181.69,77.08-9.79,2.82-19.76,5.38-29.61,7.6-28.61,6.45-56.7,10.3-83.5,11.44-5.63,.24-11.2,.36-16.7,.36Z"/><path class="cls-1" d="M426.15,1656.54c-26.26,0-51.33-2.73-74.58-8.18-28.63-6.72-55.76-17.41-80.63-31.75-23.15-13.35-43.79-29.51-61.36-48.05-14.46-15.25-26.82-32.1-36.74-50.07-9.23-16.71-16.64-34.94-22.04-54.18-9.42-33.56-13.15-71.08-11.41-114.7,1.05-26.32,4.21-54.64,9.97-89.14,12.98-76.62,35.52-152.73,59.39-233.32,10.46-35.32,21.28-71.85,31.4-108.92,26.05-95.44,52.66-206.75,38.64-319.98-2.27-18.54-5.59-36.87-9.87-54.5-5.69-23.21-13.44-46.22-23.03-68.39-9.85-22.79-21.71-44.83-35.24-65.51-28.86-44.11-64.87-81.71-107.03-111.76-6.9-4.92-14.06-9.69-21.29-14.18-24.8-15.4-51.34-28.03-78.87-37.52-29.04-10.02-58.58-16.33-87.82-18.76-27.9-2.32-56.6-1.22-85.31,3.27-27.89,4.36-55.29,11.85-81.44,22.23-51.67,20.66-96.89,53.07-127.31,91.24-33.13,41.57-47.26,87.58-40.84,133.06l-2.62,.37c-6.52-46.22,7.79-92.93,41.39-135.08,30.71-38.53,76.31-71.22,128.4-92.05,26.33-10.46,53.93-18,82.01-22.39,28.91-4.52,57.82-5.63,85.93-3.3,29.46,2.45,59.22,8.81,88.46,18.9,27.72,9.56,54.43,22.27,79.41,37.78,7.27,4.51,14.48,9.32,21.43,14.27,42.43,30.25,78.66,68.09,107.7,112.47,13.62,20.81,25.55,42.98,35.46,65.91,9.65,22.31,17.44,45.46,23.17,68.81,4.3,17.73,7.64,36.17,9.92,54.8,6.27,50.61,5,104.37-3.88,164.34-8.27,55.88-22.25,110.55-34.84,156.66-10.13,37.1-20.95,73.64-31.41,108.98-23.85,80.51-46.37,156.55-59.32,233.01-5.73,34.38-8.89,62.59-9.93,88.8-3.75,94.1,18.33,163.06,69.47,217.02,17.39,18.35,37.84,34.36,60.76,47.58,24.65,14.22,51.54,24.8,79.92,31.47,48.69,11.44,105.54,10.77,164.41-1.91,9.88-2.13,19.84-4.61,29.63-7.39,30.75-8.73,61.91-20.39,95.28-35.64,26.1-11.94,53.37-25.99,85.82-44.23,27.37-15.38,52.75-30.9,73.98-44.06,24.23-15.02,47.38-30.32,69.77-45.11,4.97-3.29,9.93-6.56,14.88-9.82,22.57-14.9,45.32-29.86,67.33-44.33,21.33-14.03,43.4-28.54,65.4-43.06,78.59-51.85,155.15-104.4,227.55-156.18,72.19-51.66,145.63-106.13,218.3-161.89,47.69-36.49,98.54-76.21,155.47-121.41,29.04-23.06,58.73-46.46,87.44-69.1,94.66-74.62,192.53-151.79,285.58-230.9,36.13-30.72,71.6-63.38,105.91-94.96,17.74-16.33,36.08-33.22,54.29-49.63,11.46-10.33,23.05-20.89,34.26-31.1,35.59-32.42,72.38-65.94,110.73-97.28,23.69-19.26,45.72-35.54,67.36-49.76,25.92-17.04,50.71-30.8,75.77-42.07,28.07-12.62,56.37-21.88,84.12-27.52,30.67-6.24,61.74-8.29,92.36-6.09,27.98,2.01,56.07,7.57,83.47,16.53,24.74,8.09,49.8,19.23,74.46,33.13,39.63,22.32,79.24,51.99,124.67,93.36,15.24,13.96,31.49,29.65,51.12,49.39,9.79,9.85,19.66,19.92,29.2,29.66,10.51,10.73,21.38,21.82,32.19,32.66,44.79,44.83,87.63,82.92,130.99,116.45,105.6,81.41,216.3,135.59,329,161.04,149.57,33.81,307.54,15.27,428.46-4.65,130.87-21.56,235.98-42.93,330.77-67.24,42.43-10.92,83.9-22.18,122.39-32.72,15.57-4.25,31.44-8.62,46.79-12.84,52.95-14.56,107.71-29.61,162.68-43.69,93.53-23.87,171.14-40.47,244.24-52.24,162.64-25.99,311.63-29.99,442.84-11.86,10.03,1.39,20.12,2.94,29.98,4.6,59.81,10.17,115.66,25.38,166.01,45.2l-.97,2.46c-50.17-19.76-105.85-34.91-165.48-45.05-9.83-1.66-19.89-3.21-29.9-4.59-130.95-18.09-279.68-14.1-442.05,11.85-73.02,11.76-150.55,28.35-244,52.19-54.95,14.07-109.7,29.12-162.64,43.67-15.35,4.22-31.23,8.59-46.8,12.84-38.5,10.54-79.98,21.8-122.43,32.73-94.87,24.33-200.04,45.71-330.99,67.29-82.81,13.64-150.86,20.92-214.14,22.91-11.64,.37-23.1,.55-34.36,.55-65.59,0-125.07-6.21-180.97-18.84-59.83-13.51-119.55-35.21-177.5-64.51-51.46-26.01-102.77-58.65-152.53-97.01-43.45-33.6-86.38-71.76-131.25-116.67-10.82-10.85-21.7-21.95-32.21-32.68-9.54-9.74-19.4-19.8-29.19-29.64-19.61-19.71-35.82-35.37-51.03-49.3-67.8-61.74-161.02-133.72-281.01-142.33-135.24-9.7-246.11,66.61-317.74,124.85-38.29,31.29-75.06,64.79-110.62,97.18-11.21,10.21-22.81,20.78-34.27,31.11-18.2,16.4-36.54,33.28-54.27,49.61-34.33,31.6-69.82,64.28-105.99,95.03-93.09,79.14-190.99,156.32-285.66,230.96-28.71,22.63-58.4,46.04-87.44,69.09-56.94,45.21-107.81,84.94-155.51,121.44-72.69,55.78-146.16,110.26-218.37,161.94-72.43,51.8-149.02,104.37-227.63,156.24-22,14.52-44.06,29.03-65.4,43.06-22,14.47-44.76,29.44-67.33,44.33-4.95,3.26-9.9,6.53-14.88,9.82-22.4,14.8-45.57,30.11-69.83,45.15-21.25,13.17-46.66,28.71-74.07,44.12-32.52,18.27-59.85,32.36-86.02,44.33-33.49,15.32-64.78,27.02-95.65,35.78-9.84,2.8-19.86,5.3-29.79,7.44-31.18,6.72-61.82,10.09-90.99,10.09Z"/><path class="cls-1" d="M405.36,1684.32c-29.77,0-58.27-3.59-84.58-10.75-29.04-7.9-56.42-19.97-81.37-35.87-23.31-14.85-43.89-32.62-61.16-52.81-14.26-16.67-26.25-34.98-35.64-54.43-8.74-18.09-15.5-37.74-20.1-58.4-8.06-36.17-9.9-76.2-5.64-122.38,2.69-28.24,7.81-59.02,15.67-94.1,17.17-76.01,43.4-150.13,71.16-228.6,14.39-40.66,29.27-82.7,42.87-125.28,13.79-43.15,30.97-100.35,41.55-160.08,10.74-60.65,13.27-115.24,7.72-166.9-2-18.85-5.12-37.51-9.27-55.47-5.48-23.52-13.12-46.88-22.71-69.43-9.82-23.09-21.75-45.45-35.45-66.46-29.11-44.65-65.65-82.77-108.6-113.3-7-4.98-14.26-9.8-21.59-14.34-25.14-15.57-52-28.36-79.86-38-29.45-10.2-59.4-16.65-89.02-19.18-28.25-2.41-57.35-1.38-86.5,3.08-28.25,4.32-56.04,11.77-82.61,22.13-52.37,20.54-98.28,52.75-129.27,90.67-33.86,41.44-48.44,87.42-42.18,132.96l-2.73,.38c-6.37-46.32,8.42-93.03,42.77-135.08,31.28-38.29,77.59-70.78,130.4-91.5,26.75-10.44,54.74-17.94,83.19-22.29,29.36-4.49,58.68-5.53,87.15-3.1,29.84,2.55,60.02,9.05,89.68,19.32,28.04,9.71,55.1,22.59,80.4,38.27,7.38,4.57,14.69,9.43,21.74,14.44,43.24,30.73,80.01,69.1,109.31,114.04,13.79,21.15,25.79,43.65,35.68,66.89,9.66,22.69,17.35,46.21,22.86,69.88,4.17,18.07,7.31,36.85,9.32,55.8,5.57,51.92,3.04,106.76-7.75,167.67-10.61,59.89-27.82,117.2-41.64,160.44-13.62,42.62-28.5,84.68-42.9,125.36-27.74,78.39-53.94,152.43-71.07,228.28-7.83,34.97-12.94,65.63-15.62,93.75-4.24,45.89-2.41,85.65,5.58,121.53,4.56,20.45,11.25,39.9,19.89,57.8,9.29,19.23,21.15,37.35,35.25,53.84,17.09,19.98,37.46,37.57,60.54,52.28,24.72,15.75,51.84,27.7,80.61,35.53,49.5,13.47,106.85,14.18,165.83,2.04,9.94-2.04,19.96-4.48,29.79-7.23,31.15-8.72,62.37-20.59,95.47-36.31,26.78-12.72,53.95-27.5,85.51-46.54,22.44-13.54,45.85-28.72,73.69-47.77,25.72-17.61,50.36-35.73,74.19-53.25,3.53-2.6,7.06-5.19,10.59-7.78,25.67-18.87,51.61-37.91,76.69-56.31,18.87-13.85,37.78-27.73,56.86-41.74,80.99-59.5,155.13-115.33,226.66-170.68,71.93-55.7,144.65-113.41,216.14-171.54,47.18-38.29,97.52-79.74,153.89-126.71,29.22-24.35,59.05-49.07,87.91-72.99,93.1-77.15,189.36-156.94,281.56-237.79,37.01-32.45,73.64-66.55,109.06-99.53,18.29-17.03,37.2-34.63,55.94-51.8,11.9-10.9,23.93-22.05,35.57-32.83,36.55-33.86,74.34-68.87,113.77-101.61,24.36-20.16,47.07-37.21,69.41-52.13,26.37-17.6,52.69-32.43,78.24-44.07,29.01-13.22,58.29-22.92,87.01-28.82,31.74-6.53,63.93-8.66,95.67-6.35,29,2.12,58.08,7.96,86.44,17.37,25.6,8.49,51.5,20.19,76.98,34.78,40.98,23.46,81.81,54.57,128.48,97.91,15.89,14.82,32.11,30.78,52.6,51.77,9.94,10.18,19.95,20.59,29.64,30.66,10.94,11.37,22.25,23.13,33.51,34.62,46.02,46.91,90.16,86.76,134.93,121.84,108.77,85.03,223.19,141.45,340.08,167.69,61.78,13.88,124.64,19.09,185.01,19.09,97.69,0,188.92-13.64,258.8-26.31,116.86-21.19,225.89-46.64,333.3-77.81,42.83-12.46,86.06-25.64,123.21-37.02,10.76-3.29,21.53-6.6,32.32-9.91,58.02-17.8,118.01-36.2,178.3-53.2,93.15-26.21,171.13-44.49,245.4-57.51,96.03-16.75,187.55-25.14,273.66-25.14,59.86,0,117.1,4.05,171.46,12.16,10.09,1.51,20.22,3.19,30.12,4.99,60.17,11.02,116.23,27.47,166.6,48.87l-1.08,2.54c-50.19-21.32-106.05-37.71-166.02-48.7-9.87-1.8-19.98-3.48-30.04-4.98-132.28-19.74-281.74-15.38-444.24,12.96-74.17,13.01-152.07,31.26-245.13,57.45-60.25,16.99-120.23,35.39-178.24,53.18-10.79,3.31-21.56,6.61-32.32,9.91-37.16,11.38-80.4,24.57-123.25,37.03-107.51,31.19-216.62,56.67-333.58,77.87-82.65,14.99-155.2,23.41-221.8,25.75-38.9,1.37-76.65,.65-112.2-2.13-38.46-3-75.77-8.53-110.91-16.42-62.01-13.92-123.82-36.45-183.72-66.96-53.23-27.12-106.21-61.18-157.46-101.24-44.86-35.15-89.09-75.08-135.2-122.08-11.27-11.5-22.58-23.26-33.53-34.64-9.68-10.07-19.69-20.47-29.62-30.65-20.46-20.95-36.65-36.89-52.51-51.68-69.73-64.75-165.73-140.24-290.22-149.33-8.26-.6-16.44-.89-24.51-.89-129.13,0-234.43,74.2-303.86,131.64-39.37,32.69-77.13,67.68-113.65,101.51-11.64,10.78-23.67,21.93-35.58,32.84-18.73,17.16-37.63,34.76-55.92,51.78-35.44,32.99-72.09,67.11-109.12,99.58-92.23,80.88-188.51,160.67-281.62,237.84-28.85,23.91-58.69,48.64-87.9,72.98-56.38,46.98-106.73,88.44-153.92,126.73-71.5,58.14-144.24,115.87-216.19,171.58-71.55,55.37-145.71,111.22-226.72,170.73-19.07,14.01-37.99,27.89-56.86,41.74-25.08,18.41-51.01,37.44-76.69,56.31-3.53,2.59-7.05,5.18-10.59,7.78-23.85,17.54-48.51,35.67-74.27,53.31-27.88,19.09-51.33,34.29-73.82,47.86-31.64,19.09-58.88,33.92-85.75,46.67-33.24,15.78-64.61,27.71-95.91,36.47-9.88,2.77-19.97,5.22-29.97,7.27-28.09,5.78-55.82,8.66-82.53,8.67Z"/><path class="cls-1" d="M383.75,1712.3c-32.96,0-64.62-4.52-93.77-13.51-29.46-9.09-57.08-22.54-82.11-39.99-23.48-16.37-43.98-35.74-60.96-57.57-14.06-18.09-25.69-37.87-34.56-58.79-8.26-19.48-14.39-40.55-18.2-62.61-6.72-38.89-6.66-81.44,.2-130.07,4.3-30.1,11.29-62.5,21.38-99.06,21.26-76.73,51.39-150.39,83.28-228.36,18.23-44.57,37.08-90.67,54.01-137.16,23.05-63.31,38.41-115.35,48.33-163.79,12.62-61.61,16.41-117.27,11.57-170.18-1.74-19.16-4.65-38.16-8.67-56.45-5.26-23.84-12.8-47.55-22.4-70.46-9.8-23.39-21.79-46.07-35.65-67.41-29.36-45.2-66.43-83.84-110.17-114.83-7.1-5.03-14.47-9.91-21.89-14.5-25.47-15.75-52.67-28.69-80.84-38.48-29.87-10.38-60.22-16.98-90.21-19.6-28.6-2.5-58.11-1.53-87.7,2.89-28.61,4.27-56.79,11.69-83.77,22.03-96.86,37.27-188.46,120.68-174.74,222.98l-2.85,.38c-6.23-46.43,9.04-93.14,44.16-135.09,31.86-38.05,78.88-70.35,132.4-90.95,27.17-10.42,55.56-17.88,84.37-22.19,29.81-4.45,59.55-5.43,88.37-2.91,30.23,2.65,60.81,9.29,90.91,19.75,28.37,9.86,55.76,22.9,81.4,38.75,7.48,4.62,14.89,9.53,22.04,14.6,44.04,31.21,81.36,70.11,110.92,115.61,13.95,21.49,26.03,44.32,35.89,67.87,9.67,23.07,17.25,46.95,22.56,70.95,4.04,18.41,6.97,37.52,8.72,56.8,4.86,53.19,1.06,109.14-11.62,171.02-9.95,48.58-25.35,100.75-48.45,164.2-16.95,46.54-35.81,92.66-54.05,137.26-31.86,77.9-61.95,151.47-83.17,228.04-10.05,36.44-17.02,68.72-21.3,98.7-14.64,103.91,2.36,185.46,51.99,249.31,34.86,44.85,85.16,79.15,141.64,96.58,50.28,15.51,108.12,17.59,167.25,5.99,10.01-1.96,20.09-4.34,29.95-7.06,31.43-8.68,62.71-20.78,95.63-37,26.67-13.14,54.54-29.11,85.22-48.82,22.99-14.89,46.32-31.25,73.4-51.48,27.63-20.78,54.24-42.31,79.97-63.13l4.95-4.01c17.78-14.4,35.8-28.97,53.23-43.06,26.53-21.45,53.97-43.63,81.13-65.66,74.78-60.33,150.74-122.63,225.77-185.19,71.68-59.77,143.67-120.73,213.98-181.19,46.68-40.08,96.49-83.26,152.3-132.01,29.36-25.64,59.3-51.7,88.26-76.89,91.56-79.67,186.24-162.06,277.66-244.66,37.86-34.2,75.65-69.74,112.2-104.1,18.85-17.72,38.34-36.05,57.6-53.97,12.33-11.47,24.8-23.2,36.85-34.55,37.52-35.31,76.32-71.81,116.83-105.96,25.04-21.06,48.42-38.88,71.46-54.49,27.17-18.4,54.33-33.91,80.72-46.08,29.95-13.82,60.2-23.96,89.9-30.13,32.82-6.82,66.12-9.04,98.97-6.61,129.89,9.63,229.18,89.02,301.18,157.11,16.33,15.49,33.01,32.19,54.09,54.15,10.09,10.52,20.26,21.27,30.09,31.67,11.36,12.02,23.11,24.44,34.81,36.57,47.26,48.99,92.68,90.6,138.86,127.23,111.93,88.65,230.08,147.3,351.17,174.33,36.31,8.11,74.78,13.77,114.35,16.81,36.86,2.84,75.83,3.5,115.82,1.96,70.46-2.71,145.37-12.06,229-28.56,108.02-21.32,217.88-50.23,335.84-88.37,40.97-13.27,82.05-27.12,124.03-41.33,6.8-2.3,13.61-4.6,20.42-6.91,62.26-21.08,126.64-42.87,191.34-62.78,92.94-28.56,171.29-48.51,246.56-62.78,76.63-14.47,151.57-23.28,222.74-26.16,79.07-3.21,154.66,.85,224.68,12.07,10.14,1.63,20.33,3.44,30.27,5.38,60.54,11.88,116.79,29.56,167.2,52.54l-1.19,2.62c-50.21-22.89-106.24-40.5-166.56-52.34-9.91-1.94-20.06-3.75-30.17-5.37-54.71-8.76-112.24-13.14-172.26-13.14-86.47,0-178.13,9.08-274.17,27.22-75.16,14.25-153.41,34.17-246.25,62.7-64.67,19.9-129.03,41.69-191.27,62.75-6.81,2.31-13.62,4.61-20.42,6.91-41.99,14.21-83.08,28.06-124.07,41.34-118.07,38.18-228.03,67.11-336.16,88.46-83.78,16.54-158.83,25.9-229.45,28.62-40.1,1.54-79.17,.88-116.15-1.96-39.7-3.06-78.31-8.73-114.75-16.87-64.19-14.33-128.1-37.68-189.94-69.41-55.01-28.22-109.65-63.71-162.39-105.48-46.28-36.71-91.8-78.41-139.15-127.49-11.71-12.15-23.46-24.57-34.83-36.6-9.83-10.4-19.99-21.15-30.08-31.66-21.04-21.93-37.69-38.6-53.99-54.05-71.65-67.76-170.44-146.76-299.42-156.33-8.61-.64-17.14-.95-25.55-.95-133.65,0-242.05,77.54-313.44,137.59-40.45,34.1-79.22,70.58-116.71,105.86-12.06,11.35-24.53,23.08-36.87,34.56-19.26,17.91-38.74,36.24-57.59,53.96-36.56,34.37-74.36,69.92-112.24,104.14-91.44,82.61-186.13,165.01-277.7,244.69-28.96,25.2-58.9,51.25-88.25,76.89-55.82,48.76-105.64,91.94-152.32,132.03-70.32,60.47-142.33,121.44-214.01,181.22-75.05,62.56-151.02,124.88-225.81,185.21-27.16,22.03-54.6,44.21-81.13,65.66-17.43,14.09-35.45,28.66-53.23,43.05l-4.95,4.01c-25.75,20.83-52.37,42.38-80.05,63.19-27.13,20.28-50.51,36.67-73.56,51.6-30.77,19.77-58.74,35.79-85.51,48.98-33.08,16.3-64.53,28.47-96.14,37.19-9.93,2.74-20.07,5.14-30.16,7.11-25.36,4.97-50.48,7.45-74.89,7.45Z"/><path class="cls-1" d="M361.76,1740.38c-6.29,0-12.56-.17-18.8-.51-29.45-1.59-57.63-6.94-83.77-15.88-58.03-20.09-109.02-57.89-143.59-106.44-49.74-70.18-64.05-157.76-43.75-267.74,5.93-31.97,14.78-66,27.08-104.02,25.37-78.33,61.18-155.95,95.8-231.02,21.94-47.57,44.63-96.76,64.72-146.14,25.88-63.61,43.39-116.83,55.11-167.48,14.49-62.6,19.53-119.35,15.42-173.49-1.47-19.48-4.18-38.8-8.07-57.42-5.05-24.16-12.48-48.21-22.08-71.5-9.77-23.69-21.83-46.69-35.86-68.36-29.61-45.75-67.21-84.9-111.75-116.37-7.2-5.09-14.66-10.02-22.19-14.66-25.8-15.92-53.33-29.03-81.82-38.96-30.29-10.56-61.04-17.3-91.41-20.02-28.95-2.6-58.86-1.69-88.89,2.7-28.97,4.23-57.54,11.61-84.93,21.93-98.23,37.08-191.38,120.21-178.03,222.31l-2.96,.39c-6.08-46.54,9.67-93.26,45.54-135.1,32.43-37.82,80.16-69.92,134.4-90.4,27.59-10.4,56.37-17.83,85.55-22.09,30.27-4.42,60.41-5.33,89.59-2.72,30.61,2.74,61.61,9.53,92.13,20.18,28.69,10.01,56.42,23.21,82.4,39.24,7.58,4.67,15.1,9.64,22.35,14.76,44.85,31.69,82.71,71.11,112.53,117.19,14.12,21.82,26.27,44.98,36.11,68.84,9.67,23.45,17.16,47.69,22.25,72.02,3.91,18.75,6.64,38.2,8.12,57.8,4.13,54.45-.94,111.49-15.49,174.39-11.76,50.81-29.32,104.17-55.25,167.94-20.12,49.45-42.82,98.67-64.78,146.27-34.59,74.98-70.36,152.52-95.67,230.69-12.25,37.9-21.08,71.8-26.98,103.65-20.14,109.15-6,195.98,43.25,265.47,34.21,48.04,84.69,85.46,142.13,105.35,25.87,8.86,53.79,14.15,82.96,15.72,28.14,1.52,56.97-.43,85.71-5.79,10.08-1.88,20.21-4.2,30.1-6.9,57.99-15.79,115.42-44.01,180.72-88.79,23.08-15.89,47-33.94,73.11-55.19,28.11-22.95,55.3-46.96,81.6-70.18l3.46-3.05c17.59-15.54,35.16-31.05,52.72-46.55,27-23.84,54.91-48.48,82.46-72.83,75.61-66.67,151.27-133.85,224.88-199.69,71.44-63.91,142.71-128.12,211.82-190.84,46.13-41.83,95.43-86.75,150.72-137.31,29.46-26.94,59.47-54.33,88.49-80.82,90.05-82.18,183.16-167.16,273.86-251.51,38.68-35.97,77.65-72.94,115.34-108.69,19.41-18.41,39.48-37.45,59.26-56.12,12.76-12.04,25.66-24.35,38.13-36.26,38.49-36.75,78.3-74.75,119.9-110.31,25.72-21.96,49.76-40.55,73.52-56.86,27.98-19.2,55.97-35.38,83.19-48.09,30.9-14.42,62.12-25,92.79-31.43,33.9-7.11,68.31-9.42,102.28-6.87,31.03,2.34,62.1,8.74,92.36,19.05,27.32,9.31,54.91,22.11,82,38.07,43.69,25.73,86.93,59.74,136.1,107.03,16.77,16.16,33.91,33.59,55.57,56.53,10.26,10.86,20.59,21.97,30.58,32.7,11.77,12.65,23.95,25.74,36.08,38.51,48.5,51.07,95.21,94.45,142.8,132.62,115.1,92.27,236.98,153.16,362.25,180.98,37.62,8.36,77.38,14.17,118.19,17.27,38.28,2.91,78.57,3.52,119.75,1.81,73.3-3.04,152.89-13.62,236.58-31.45,102.78-21.89,210.3-53.33,338.37-98.94,42.09-15,84.17-30.57,124.85-45.63l10.47-3.87c65.87-24.38,133.98-49.58,202.44-72.4,92.85-30.92,171.57-52.54,247.73-68.05,76.79-15.61,152.11-25.09,223.85-28.19,79.42-3.43,155.41,.94,225.85,12.99,10.19,1.74,20.42,3.69,30.42,5.77,60.9,12.74,117.36,31.65,167.8,56.22l-1.31,2.69c-50.22-24.45-106.44-43.29-167.1-55.98-9.96-2.08-20.16-4.02-30.31-5.75-55.17-9.44-113.08-14.16-173.42-14.16-86.96,0-178.96,9.79-275.19,29.35-76.03,15.48-154.64,37.07-247.38,67.95-68.42,22.8-136.5,48-202.35,72.36l-10.47,3.87c-40.7,15.06-82.78,30.64-124.89,45.65-128.2,45.66-235.84,77.13-338.75,99.04-83.85,17.86-163.62,28.46-237.08,31.51-41.29,1.71-81.7,1.1-120.1-1.82-40.95-3.11-80.85-8.95-118.61-17.33-66.37-14.74-132.37-38.92-196.16-71.86-56.79-29.32-113.08-66.23-167.31-109.71-47.69-38.26-94.5-81.73-143.1-132.9-12.14-12.79-24.32-25.88-36.1-38.53-9.99-10.73-20.31-21.83-30.56-32.69-21.62-22.9-38.73-40.31-55.47-56.43-73.57-70.76-175.14-153.28-308.62-163.32-150.47-11.32-271.6,75.92-349.61,142.54-41.54,35.51-81.31,73.48-119.78,110.2-12.48,11.91-25.38,24.23-38.14,36.28-19.78,18.67-39.85,37.71-59.26,56.12-37.69,35.75-76.66,72.73-115.36,108.71-90.72,84.36-183.83,169.34-273.88,251.53-29.02,26.48-59.03,53.87-88.49,80.81-55.29,50.56-104.6,95.48-150.73,137.32-69.12,62.73-140.39,126.94-211.84,190.86-73.61,65.84-149.28,133.03-224.9,199.7-27.55,24.35-55.46,48.99-82.46,72.83-17.56,15.5-35.12,31.01-52.72,46.55l-3.46,3.05c-26.32,23.24-53.53,47.27-81.69,70.26-26.18,21.3-50.16,39.41-73.31,55.34-65.59,44.98-123.3,73.33-181.63,89.21-9.98,2.72-20.18,5.06-30.34,6.95-22.6,4.22-45.27,6.34-67.62,6.34Z"/><path class="cls-1" d="M338.78,1768.69c-3.4,0-6.8-.05-10.2-.15-35.41-1.05-69.13-7.55-100.2-19.34-59-22.38-110.19-63.33-144.11-115.32-18.74-28.72-32.19-60.64-39.96-94.87-7.02-30.94-9.62-64.7-7.71-100.34,3.1-58.01,17.99-122.71,45.52-197.77,29.54-80.56,69.82-159.39,108.77-235.62,25.52-49.94,51.9-101.57,75-153.19,33.4-74.61,55.87-140.06,68.7-200.08,7.6-35.56,12-70.22,13.06-103,1.16-35.6-1.56-70.34-8.07-103.28-22.23-112.42-92.81-212.49-193.64-274.56-26.14-16.09-54-29.36-82.8-39.44-30.71-10.75-61.86-17.62-92.61-20.44-29.3-2.69-59.61-1.84-90.09,2.5-29.32,4.18-58.29,11.53-86.09,21.82-99.6,36.89-194.3,119.74-181.32,221.65l-3.08,.39c-5.94-46.65,10.29-93.37,46.93-135.11,32.99-37.58,81.43-69.49,136.39-89.85,28.01-10.37,57.19-17.77,86.73-21.99,30.72-4.38,61.27-5.23,90.81-2.52,31,2.84,62.4,9.77,93.35,20.6,29.01,10.15,57.07,23.52,83.4,39.73,26.18,16.12,50.66,35,72.73,56.13,21.27,20.35,40.48,42.94,57.11,67.13,16.16,23.51,29.94,48.63,40.95,74.65,10.83,25.6,19,52.07,24.26,78.7,6.56,33.16,9.29,68.15,8.13,103.98-1.07,32.97-5.49,67.81-13.13,103.55-12.88,60.24-35.41,125.89-68.9,200.7-23.14,51.69-49.54,103.36-75.07,153.33-38.91,76.15-79.15,154.9-108.62,235.28-27.42,74.77-42.25,139.17-45.33,196.87-1.89,35.36,.68,68.83,7.64,99.49,7.69,33.87,20.99,65.45,39.53,93.86,33.57,51.44,84.22,91.97,142.62,114.12,60.69,23.01,131.85,25.56,200.36,7.16,32.11-8.62,63.52-21.15,96.03-38.29,27.37-14.43,55.04-31.92,84.57-53.47,56.79-41.43,106.9-89.35,155.36-135.69l2.67-2.55,359.98-344.23,358.8-343.11,179.4-171.55,179.4-171.55,179.4-171.55c13.19-12.61,26.52-25.51,39.41-37.98,39.47-38.2,80.28-77.69,122.97-114.66,26.39-22.85,51.11-42.23,75.57-59.22,28.78-20,57.6-36.85,85.67-50.09,31.84-15.02,64.03-26.04,95.68-32.74,34.98-7.41,70.5-9.8,105.58-7.13,32.05,2.44,64.12,9.14,95.33,19.89,28.18,9.71,56.61,23.07,84.51,39.72,45.04,26.86,89.5,62.32,139.91,111.59,30.75,30.05,59.91,61.86,88.11,92.62,12.19,13.3,24.79,27.04,37.35,40.46,49.74,53.15,97.74,98.29,146.73,138.01,118.27,95.89,243.87,159.01,373.34,187.63,143.02,31.61,307.84,26.59,489.87-14.94,72.16-16.46,148.84-39.26,234.4-69.7,76.26-27.13,152.21-57.63,225.65-87.11l8.54-3.43c147.28-59.13,299.58-120.28,460.93-155.36,76.98-16.74,152.67-26.91,224.97-30.23,79.79-3.66,156.18,1.02,227.03,13.9,73.05,13.29,139.99,35.51,198.96,66.05l-1.43,2.76c-58.69-30.4-125.34-52.52-198.08-65.76-70.62-12.85-146.77-17.51-226.34-13.86-72.12,3.31-147.64,13.46-224.45,30.16-161.09,35.03-313.27,96.12-460.43,155.21l-8.53,3.43c-73.47,29.5-149.45,60.01-225.77,87.16-85.68,30.48-162.47,53.32-234.75,69.81-85.18,19.43-167.51,31.02-244.7,34.43-87.56,3.87-170.5-2.68-246.53-19.49-68.55-15.15-136.64-40.15-202.38-74.31-58.56-30.43-116.51-68.76-172.24-113.94-49.11-39.81-97.2-85.05-147.04-138.3-12.57-13.43-25.18-27.19-37.37-40.49-28.17-30.73-57.3-62.51-87.99-92.5-75.5-73.77-179.85-159.8-317.82-170.32-155.56-11.87-280.09,79.03-360.24,148.43-42.62,36.91-83.4,76.38-122.84,114.54-12.89,12.48-26.23,25.38-39.42,38l-538.2,514.66-358.8,343.1-362.65,346.79c-48.53,46.41-98.72,94.41-155.67,135.96-29.66,21.64-57.44,39.2-84.95,53.71-32.72,17.25-64.34,29.86-96.67,38.54-30.27,8.13-61.13,12.24-91.87,12.24Z"/></svg>