<svg width="206" height="206" viewBox="0 0 206 206" fill="none" xmlns="http://www.w3.org/2000/svg">
<g clip-path="url(#clip0_8_63)">
<path d="M102.71 145.7C96.93 145.7 91.33 144.56 86.05 142.32C80.95 140.15 76.38 137.05 72.45 133.1C68.52 129.15 65.44 124.55 63.28 119.43C61.05 114.13 59.92 108.5 59.92 102.7C59.92 96.9 61.05 91.27 63.28 85.97C65.43 80.85 68.52 76.25 72.45 72.3C76.38 68.35 80.95 65.25 86.05 63.08C91.33 60.84 96.93 59.7 102.71 59.7C108.49 59.7 114.09 60.84 119.37 63.08C124.47 65.25 129.04 68.35 132.97 72.3C136.9 76.25 139.98 80.85 142.14 85.97C144.37 91.27 145.5 96.9 145.5 102.7C145.5 108.5 144.37 114.13 142.14 119.43C139.99 124.55 136.9 129.15 132.97 133.1C129.04 137.05 124.47 140.15 119.37 142.32C114.09 144.56 108.49 145.7 102.71 145.7ZM102.71 64.04C97.52 64.04 92.49 65.06 87.75 67.08C83.17 69.03 79.06 71.81 75.53 75.36C72 78.91 69.22 83.05 67.29 87.65C65.28 92.42 64.27 97.48 64.27 102.7C64.27 107.92 65.29 112.99 67.29 117.75C69.23 122.35 72 126.49 75.53 130.04C79.06 133.59 83.17 136.38 87.75 138.32C92.49 140.33 97.52 141.36 102.71 141.36C107.9 141.36 112.93 140.34 117.67 138.32C122.25 136.37 126.36 133.59 129.89 130.04C133.42 126.49 136.2 122.35 138.13 117.75C140.14 112.98 141.15 107.92 141.15 102.7C141.15 97.48 140.13 92.41 138.13 87.65C136.19 83.05 133.42 78.91 129.89 75.36C126.36 71.81 122.25 69.02 117.67 67.08C112.93 65.07 107.9 64.04 102.71 64.04Z" fill="black"/>
<path d="M112.14 85.63H118.42V119.79H111.38L95.19 94.88V119.46H88.91V85.62H96.11L112.14 110.25V85.62V85.63Z" fill="black"/>
<path d="M102.71 156.54C72.97 156.54 48.78 132.35 48.78 102.61C48.78 72.87 72.97 48.68 102.71 48.68C132.45 48.68 156.64 72.87 156.64 102.61C156.64 132.35 132.45 156.54 102.71 156.54ZM102.71 49.78C73.58 49.78 49.88 73.48 49.88 102.61C49.88 131.74 73.58 155.44 102.71 155.44C131.84 155.44 155.54 131.74 155.54 102.61C155.54 73.48 131.84 49.78 102.71 49.78Z" fill="black"/>
<path d="M102.71 153.13C74.91 153.13 52.29 130.51 52.29 102.71C52.29 74.91 74.91 52.29 102.71 52.29C130.51 52.29 153.13 74.91 153.13 102.71C153.13 130.51 130.51 153.13 102.71 153.13ZM102.71 53.39C75.51 53.39 53.39 75.52 53.39 102.72C53.39 129.92 75.52 152.04 102.71 152.04C129.9 152.04 152.03 129.91 152.03 102.72C152.03 75.53 129.9 53.39 102.71 53.39Z" fill="black"/>
<path d="M20.46 83.04L21.87 79.09L37.11 74.24L25.12 69.97L26.63 65.74L46.1 72.68L44.8 76.32L29.07 81.34L41.45 85.75L39.94 89.98L20.47 83.04H20.46Z" fill="black"/>
<path d="M39.66 63L39.62 62.96C35.16 59.13 34.53 52.48 38.68 47.64C42.83 42.8 49.42 42.43 53.88 46.25L53.92 46.29C58.38 50.12 59.01 56.77 54.86 61.61C50.71 66.45 44.12 66.82 39.66 63ZM50.87 49.94L50.83 49.9C48.14 47.59 44.21 47.64 41.82 50.42C39.43 53.2 39.98 57.01 42.67 59.32L42.71 59.36C45.4 61.67 49.33 61.62 51.72 58.84C54.11 56.06 53.56 52.25 50.88 49.94H50.87Z" fill="black"/>
<path d="M54.5 33.3L62.74 28.68C65.03 27.39 67.13 27.03 69.02 27.56C70.63 28.01 71.91 29.09 72.88 30.81L72.91 30.86C74.54 33.77 74 36.48 72.18 38.61L80.19 42.57L75.56 45.17L68.46 41.57L65.35 43.32L68.59 49.09L64.63 51.31L54.52 33.29L54.5 33.3ZM67.39 37.57C69.35 36.47 69.86 34.86 69 33.32L68.97 33.27C68 31.55 66.37 31.35 64.41 32.44L60.47 34.65L63.37 39.82L67.39 37.57Z" fill="black"/>
<path d="M84.41 24.85L78.25 26.11L77.41 22L94.19 18.57L95.03 22.68L88.87 23.94L92.17 40.08L87.72 40.99L84.42 24.85H84.41Z" fill="black"/>
<path d="M103.51 18.15L108.03 18.66L107.12 26.78L115.45 27.72L116.36 19.6L120.88 20.11L118.57 40.64L114.05 40.13L114.98 31.89L106.65 30.95L105.72 39.19L101.2 38.68L103.51 18.15Z" fill="black"/>
<path d="M122.6 38.72L126.38 36.91C127.46 39.09 128.8 40.77 130.95 41.76C132.67 42.54 133.97 42.33 134.47 41.23L134.49 41.18C134.97 40.13 134.58 39.27 131.79 37.06C128.41 34.38 126.49 32.17 128.18 28.47L128.2 28.42C129.76 25.01 133.5 23.99 137.37 25.76C140.14 27.02 142.03 28.93 143.26 31.34L139.69 33.48C138.53 31.55 137.26 30.13 135.65 29.4C134.04 28.67 132.91 28.99 132.48 29.93L132.46 29.98C131.88 31.24 132.53 31.96 135.39 34.3C138.74 37.06 140.27 39.39 138.78 42.66L138.76 42.71C137.06 46.44 133.25 47.24 129.2 45.39C126.33 44.08 123.92 41.81 122.6 38.74V38.72Z" fill="black"/>
<path d="M151.76 34.35L155.38 37.1L142.86 53.54L139.24 50.79L151.76 34.35Z" fill="black"/>
<path d="M163.09 43.49L168.08 49.82C172.1 54.92 171.38 61.2 166.82 64.8L166.77 64.84C162.21 68.44 155.88 67.72 151.86 62.62L146.87 56.29L163.09 43.49ZM162.68 49.6L152.9 57.32L155.08 60.08C157.37 62.98 160.91 63.42 163.78 61.15L163.83 61.11C166.7 58.84 167.15 55.26 164.86 52.36L162.68 49.6Z" fill="black"/>
<path d="M179.4 67.47L184.62 82.15L180.81 83.5L177.1 73.07L173.15 74.48L176.41 83.66L172.6 85.01L169.34 75.83L165.25 77.28L169.01 87.85L165.2 89.21L159.93 74.39L179.4 67.47Z" fill="black"/>
<path d="M27.78 118.38H27.82C31.37 117.33 35.06 119.16 36.18 123C36.86 125.34 36.5 127.01 35.69 128.49L33.16 127.33C33.75 126.09 34.01 124.99 33.64 123.72C33.03 121.61 30.83 120.61 28.69 121.23H28.65C26.51 121.86 25.16 123.87 25.78 126.01C26.2 127.44 27 128.15 28.2 128.87L26.94 131.13C25.19 130.25 23.92 129.09 23.21 126.66C22.14 122.98 24.18 119.42 27.77 118.38H27.78Z" fill="black"/>
<path d="M38.24 129.94L39.56 132.48L34.99 134.86L37.43 139.54L42 137.16L43.32 139.7L31.78 145.71L30.46 143.17L35.09 140.76L32.65 136.08L28.02 138.49L26.7 135.95L38.24 129.94Z" fill="black"/>
<path d="M44.93 142.09L48.64 146.74C49.67 148.03 50.11 149.3 49.97 150.53C49.85 151.57 49.31 152.48 48.34 153.26L48.31 153.28C46.67 154.59 44.93 154.53 43.42 153.62L41.77 159L39.68 156.38L41.2 151.6L39.8 149.84L36.55 152.44L34.76 150.2L44.93 142.08V142.09ZM43.58 150.54C44.46 151.65 45.51 151.8 46.39 151.11L46.42 151.09C47.39 150.31 47.35 149.28 46.47 148.17L44.7 145.95L41.78 148.28L43.59 150.55L43.58 150.54Z" fill="black"/>
<path d="M53.77 152.38L55.85 154.34L46.92 163.8L44.84 161.83L53.77 152.37V152.38Z" fill="black"/>
<path d="M51.06 165.1L53.62 164.45C54.02 165.93 54.64 167.14 55.84 168.01C56.8 168.71 57.63 168.73 58.08 168.12L58.1 168.09C58.52 167.5 58.39 166.92 56.95 165.21C55.19 163.14 54.28 161.54 55.79 159.46L55.81 159.43C57.19 157.52 59.63 157.35 61.8 158.92C63.35 160.04 64.28 161.45 64.75 163.09L62.28 163.97C61.8 162.64 61.19 161.6 60.29 160.95C59.39 160.3 58.65 160.36 58.27 160.89L58.25 160.92C57.74 161.63 58.05 162.15 59.52 163.95C61.24 166.07 61.91 167.69 60.58 169.53L60.56 169.56C59.05 171.65 56.6 171.68 54.32 170.03C52.71 168.86 51.5 167.17 51.07 165.11L51.06 165.1Z" fill="black"/>
<path d="M69.27 166.88L65.72 165.12L66.89 162.76L76.55 167.55L75.38 169.91L71.83 168.15L67.22 177.44L64.66 176.17L69.27 166.88Z" fill="black"/>
<path d="M78.8701 168.23L81.5801 169.15L77.3901 181.47L74.6801 180.55L78.8701 168.23Z" fill="black"/>
<path d="M89.01 170.96L91.61 171.43L94.78 185.32L91.83 184.79L91.17 181.71L85.75 180.74L84.06 183.4L81.19 182.88L89 170.96H89.01ZM90.62 179.03L89.66 174.57L87.21 178.42L90.61 179.03H90.62Z" fill="black"/>
<path d="M98.79 172.52L101.43 172.45L107.73 180.3L107.52 172.29L110.34 172.22L110.68 185.23L108.25 185.29L101.73 177.18L101.95 185.45L99.12 185.52L98.78 172.51L98.79 172.52Z" fill="black"/>
<path d="M120.43 177.1V177.06C119.29 173.54 121.02 169.8 124.83 168.58C127.15 167.84 128.83 168.16 130.33 168.93L129.24 171.49C127.99 170.93 126.88 170.7 125.62 171.11C123.53 171.78 122.58 174 123.26 176.12V176.16C123.95 178.28 125.99 179.58 128.11 178.9C129.53 178.45 130.22 177.62 130.9 176.4L133.2 177.6C132.36 179.37 131.24 180.67 128.83 181.44C125.18 182.61 121.57 180.66 120.43 177.1Z" fill="black"/>
<path d="M131.7 166.34L134.2 164.95L136.7 169.45L141.31 166.89L138.81 162.39L141.31 161L147.63 172.37L145.13 173.76L142.59 169.19L137.98 171.75L140.52 176.32L138.02 177.71L131.7 166.34Z" fill="black"/>
<path d="M148.35 165.16L143.54 159.49L145.72 157.64L150.48 163.25C151.86 164.88 153.35 165.03 154.7 163.88C156.05 162.74 156.17 161.27 154.82 159.68L150 154L152.18 152.15L156.93 157.74C159.48 160.74 159.05 163.65 156.38 165.91C153.72 168.17 150.84 168.08 148.35 165.15V165.16Z" fill="black"/>
<path d="M154 150.21L157.72 145.57C158.75 144.28 159.89 143.57 161.12 143.43C162.17 143.31 163.17 143.64 164.14 144.42L164.17 144.44C165.81 145.75 166.13 147.46 165.58 149.14L171.19 149.56L169.1 152.17L164.11 151.75L162.71 153.51L165.96 156.11L164.17 158.35L154.01 150.22L154 150.21ZM162.53 149.66C163.41 148.56 163.33 147.49 162.46 146.8L162.43 146.78C161.46 146 160.46 146.27 159.57 147.38L157.79 149.6L160.71 151.93L162.52 149.67L162.53 149.66Z" fill="black"/>
<path d="M167.57 143.29L167.54 143.27C164.27 141.55 162.88 137.67 164.75 134.13C165.88 131.98 167.31 131.02 168.92 130.53L169.93 133.12C168.65 133.6 167.7 134.21 167.08 135.38C166.06 137.32 166.93 139.57 168.91 140.61L168.94 140.63C170.91 141.67 173.28 141.17 174.32 139.2C175.01 137.88 174.93 136.81 174.56 135.46L177.04 134.71C177.68 136.56 177.79 138.28 176.61 140.51C174.83 143.9 170.89 145.04 167.58 143.3L167.57 143.29Z" fill="black"/>
<path d="M168.08 127.72L168.89 124.98L173.83 126.44L175.33 121.38L170.39 119.92L171.2 117.18L183.67 120.87L182.86 123.61L177.85 122.13L176.35 127.19L181.36 128.67L180.55 131.41L168.08 127.72Z" fill="black"/>
<path d="M102.71 201.13C48.38 201.13 4.19 156.93 4.19 102.61C4.19 48.29 48.38 4.08 102.71 4.08C157.04 4.08 201.24 48.28 201.24 102.61C201.24 156.94 157.04 201.13 102.71 201.13ZM102.71 5.17C48.98 5.18 5.28 48.89 5.28 102.61C5.28 156.33 48.99 200.04 102.71 200.04C156.43 200.04 200.14 156.33 200.14 102.61C200.14 48.89 156.43 5.18 102.71 5.18V5.17Z" fill="black"/>
<path d="M102.71 205.41C46.07 205.41 0 159.34 0 102.71C0 46.08 46.07 0 102.71 0C159.35 0 205.42 46.07 205.42 102.71C205.42 159.35 159.35 205.42 102.71 205.42V205.41ZM102.71 1.09C46.68 1.09 1.09 46.68 1.09 102.71C1.09 158.74 46.67 204.32 102.7 204.32C158.73 204.32 204.31 158.74 204.31 102.71C204.31 46.68 158.74 1.09 102.71 1.09Z" fill="black"/>
<path d="M49.33 102.06H4.72998V103.15H49.33V102.06Z" fill="black"/>
<path d="M200.69 102.06H156.09V103.15H200.69V102.06Z" fill="black"/>
</g>
<defs>
<clipPath id="clip0_8_63">
<rect width="205.41" height="205.41" fill="white"/>
</clipPath>
</defs>
</svg>
