<svg fill="#fff" xmlns="http://www.w3.org/2000/svg" viewBox="0 0 332 88"><path d="M44.2 87.5a41.8 41.8 0 0 1-30.7-12.8 43.5 43.5 0 0 1-9.3-47.9 43.5 43.5 0 0 1 70.7-13.9 43.5 43.5 0 0 1 9.3 47.9 43.5 43.5 0 0 1-40 26.7Zm0-82.8a40 40 0 0 0-36 24 39.8 39.8 0 0 0 0 30.6 39.3 39.3 0 0 0 51.2 20.9 40 40 0 0 0 20.8-20.9 39.8 39.8 0 0 0 0-30.6 39.3 39.3 0 0 0-36-24Z" /><path d="M53.7 26.6h6.4v34.7H53L36.6 36v24.9h-6.4V26.6h7.3l16.3 25v-25h-.1ZM111 69.7a7.8 7.8 0 0 1-5.6-2.3 8.2 8.2 0 0 1-1.6-8.7 7.4 7.4 0 0 1 4.1-4.3c1-.4 2-.6 3.2-.6a10 10 0 0 1 3.5.7l1.4.8 1.2 1-1.2 1.3-2.1-1.5a6 6 0 0 0-5.1-.1c-.7.3-1.4.8-1.9 1.4-.5.6-1 1.3-1.3 2a7 7 0 0 0-.5 2.5c0 .9.2 1.7.5 2.5s.7 1.5 1.3 2c.5.6 1.2 1 1.9 1.4a6 6 0 0 0 2.4.5 6 6 0 0 0 2.8-.6c.8-.4 1.5-.9 2.3-1.7l1.2 1.1-1.3 1.1-1.4.9-1.6.6H111Zm9.3-15.8h1.8v6.9h9v-6.9h1.8v15.6h-1.8v-7h-9v7h-1.8V53.9Zm16.9 0h6.7c1 0 1.8.1 2.6.4l1.9 1.1c.4.4.7.8.9 1.4.2.5.3 1.1.3 1.7 0 .7-.1 1.2-.3 1.7a3 3 0 0 1-.9 1.3c-.4.4-.8.7-1.3.9l-1.7.5 4.8 6.4H148l-4.5-6H139v6h-1.8V53.9Zm6.6 7.9 1.6-.2c.5-.1.9-.4 1.3-.6.4-.3.6-.6.8-1 .2-.4.3-.8.3-1.3 0-1-.3-1.7-1-2.3a5 5 0 0 0-2.9-.8H139v6.3h4.8v-.1Zm9.6-7.9h1.8v15.6h-1.8V53.9Zm11.7 15.8a8.5 8.5 0 0 1-6.3-2.5l1.1-1.3a10 10 0 0 0 2.5 1.7c.8.4 1.8.5 2.9.5 1.1 0 1.9-.2 2.5-.7.6-.5.9-1.1.9-1.9l-.2-1c-.1-.3-.3-.6-.6-.8-.3-.2-.7-.5-1.2-.6l-2-.6a10.5 10.5 0 0 1-3.9-1.6l-1-1.2c-.2-.5-.3-1-.3-1.7 0-.6.1-1.2.4-1.7.3-.5.6-1 1.1-1.3a5 5 0 0 1 1.6-.9c.6-.2 1.3-.3 2-.3a8.9 8.9 0 0 1 5.5 1.9l-1 1.4c-.7-.6-1.5-1-2.2-1.3-.7-.3-1.5-.4-2.3-.4-1 0-1.8.2-2.4.7-.6.5-.9 1.1-.9 1.8l.2 1c.1.3.3.6.6.8.3.2.7.5 1.3.7l2.1.6a9 9 0 0 1 3.8 1.6c.8.7 1.2 1.6 1.2 2.8 0 .7-.1 1.3-.4 1.8-.3.5-.6 1-1.1 1.4-.5.4-1 .7-1.7.9l-2.2.2Zm13-14.2h-5.2v-1.6h12.2v1.6h-5.2v13.9h-1.8V55.5Zm10.4-1.6h1.8v15.6h-1.8V53.9Zm12.1-.1h1.6l7.1 15.7h-1.9l-1.8-4.1h-8.5l-1.8 4.1h-1.8l7.1-15.7Zm4.3 10-3.5-7.9-3.6 7.9h7.1Zm7.5-9.9h1.6l9.8 12.5V53.9h1.7v15.6h-1.4l-10-12.8v12.8h-1.7V53.9Zm31.3 15.8a7.8 7.8 0 0 1-5.6-2.3 8.2 8.2 0 0 1-1.6-8.7 7.4 7.4 0 0 1 4.1-4.3c1-.4 2-.6 3.2-.6a10 10 0 0 1 3.5.7l1.4.8 1.2 1-1.2 1.3-2.1-1.5a6 6 0 0 0-5.1-.1c-.7.3-1.4.8-1.9 1.4-.5.6-1 1.3-1.3 2a7 7 0 0 0-.5 2.5c0 .9.2 1.7.5 2.5s.7 1.5 1.3 2c.5.6 1.2 1 1.9 1.4a6 6 0 0 0 2.4.5 6 6 0 0 0 2.8-.6c.8-.4 1.5-.9 2.3-1.7l1.2 1.1-1.3 1.1-1.4.9-1.6.6h-2.2Zm9.3-15.8h1.8v6.9h9v-6.9h1.8v15.6h-1.8v-7h-9v7H253V53.9Zm23.1 15.8c-1 0-1.8-.1-2.6-.4a5.7 5.7 0 0 1-3.3-3.4c-.3-.8-.5-1.8-.5-2.9v-9h1.8v8.9c0 1.7.4 3 1.3 3.9.8.9 2 1.4 3.5 1.4 1.4 0 2.6-.4 3.4-1.3.8-.9 1.3-2.1 1.3-3.8v-9h1.8V63c0 1.1-.2 2.1-.5 3-.3.9-.8 1.6-1.3 2.2-.6.6-1.3 1-2 1.3l-2.9.2Zm10.7-15.8h6.7c1 0 1.8.1 2.6.4l1.9 1.1c.4.4.7.8.9 1.4a5 5 0 0 1 0 3.4 3 3 0 0 1-.9 1.3c-.4.4-.8.7-1.3.9l-1.7.5 4.8 6.4h-2.2l-4.5-6h-4.4v6h-1.8V53.9h-.1Zm6.5 7.9 1.6-.2c.5-.1.9-.4 1.3-.6.4-.3.6-.6.8-1 .2-.4.3-.8.3-1.3 0-1-.3-1.7-1-2.3a5 5 0 0 0-2.9-.8h-4.8v6.3h4.7v-.1Zm16.7 7.9a7.8 7.8 0 0 1-5.6-2.3 8.2 8.2 0 0 1-1.6-8.7 7.4 7.4 0 0 1 4.1-4.3c1-.4 2-.6 3.2-.6a10 10 0 0 1 3.5.7l1.4.8 1.2 1-1.2 1.3-2.1-1.5c-.7-.4-1.7-.6-2.7-.6a6 6 0 0 0-2.4.5c-.7.3-1.4.8-1.9 1.4-.5.6-1 1.3-1.3 2a7 7 0 0 0-.5 2.5c0 .9.2 1.7.5 2.5s.7 1.5 1.3 2c.5.6 1.2 1 1.9 1.4a6 6 0 0 0 2.4.5 6 6 0 0 0 2.8-.6c.8-.4 1.5-.9 2.3-1.7l1.2 1.1-1.3 1.1-1.4.9-1.6.6H310Zm9.3-15.8h1.8v6.9h9v-6.9h1.8v15.6H330v-7h-9v7h-1.8V53.9h.1ZM103.5 18.5h5.3l12.3 16.2V18.5h5.7v26.3h-4.9l-12.8-16.7v16.7h-5.7V18.5h.1ZM146 45.3a14.7 14.7 0 0 1-10-4 13 13 0 0 1-3.9-9.6v-.1a13.6 13.6 0 0 1 8.4-12.5 14.7 14.7 0 0 1 15.6 2.9 13 13 0 0 1 3.9 9.6v.1a13.6 13.6 0 0 1-8.4 12.5c-1.7.7-3.6 1.1-5.6 1.1Zm0-5.3c1.2 0 2.2-.2 3.2-.6 1-.4 1.8-1 2.5-1.8a8.7 8.7 0 0 0 2.2-5.8v-.1c0-1.1-.2-2.2-.6-3.2-.4-1-.9-1.9-1.7-2.6a8.8 8.8 0 0 0-2.5-1.8 8.3 8.3 0 0 0-6.4-.1c-1 .4-1.8 1-2.5 1.8a8.7 8.7 0 0 0-2.2 5.8v.1c0 1.1.2 2.2.6 3.2.4 1 .9 1.9 1.7 2.6.7.8 1.6 1.3 2.5 1.8 1 .4 2.1.7 3.2.7Zm19.2-21.5h12c3.3 0 5.9.9 7.7 2.7a8.1 8.1 0 0 1 2.3 6v.1c0 2.1-.5 3.9-1.6 5.2a9.7 9.7 0 0 1-4.1 3l6.4 9.4h-6.8l-5.6-8.4H171v8.4h-5.8V18.5Zm11.6 12.8c1.4 0 2.5-.3 3.3-1 .8-.7 1.1-1.6 1.1-2.7v-.1c0-1.3-.4-2.2-1.2-2.8-.8-.6-1.9-.9-3.3-.9H171v7.6h5.8v-.1Zm21.7-7.5h-8v-5.3h21.8v5.3h-8v21h-5.8v-21Zm18.2-5.3h5.8v10.4h10.7V18.5h5.8v26.3h-5.8V34.2h-10.7v10.6h-5.8V18.5Zm38 26.7c-2 0-4-.3-5.9-1-1.9-.7-3.7-1.7-5.3-3.2l3.4-4.1c1.2 1 2.4 1.8 3.7 2.3 1.3.6 2.7.9 4.2.9 1.2 0 2.1-.2 2.8-.7.7-.4 1-1 1-1.8v-.1a3 3 0 0 0-.2-1c-.1-.3-.4-.6-.8-.8l-1.6-.8-2.7-.8-3.6-1.1c-1.1-.4-2-.9-2.8-1.5a6.5 6.5 0 0 1-1.8-2.2c-.5-.9-.6-2-.6-3.3v-.1c0-1.2.2-2.3.7-3.3.4-1 1.1-1.8 1.9-2.5a9 9 0 0 1 2.9-1.6 11 11 0 0 1 3.7-.6 15.1 15.1 0 0 1 9.8 3.4l-3 4.4a20 20 0 0 0-3.5-1.9 8.3 8.3 0 0 0-3.4-.7c-1.1 0-2 .2-2.5.7-.6.4-.8 1-.8 1.6v.1l.2 1.1c.2.3.5.6.9.8.4.3 1 .5 1.8.7l2.8.8c1.3.4 2.5.7 3.6 1.2 1 .4 1.9 1 2.6 1.6a5 5 0 0 1 1.6 2.2c.4.8.5 1.8.5 3v.1c0 1.3-.2 2.5-.7 3.5-.5 1-1.1 1.9-2 2.6-.8.7-1.9 1.2-3 1.6-1.1.3-2.4.5-3.9.5Zm15-26.7h5.8v26.3h-5.8V18.5Zm12.4 0h10.3c2.1 0 3.9.3 5.7 1a13.3 13.3 0 0 1 7.3 7c.7 1.6 1 3.3 1 5.2v.1a12.7 12.7 0 0 1-8.3 12.2c-1.7.7-3.6 1-5.7 1h-10.3V18.5Zm10.2 21.1a8 8 0 0 0 5.7-2.2 8.3 8.3 0 0 0 2.2-5.7v-.1a8.3 8.3 0 0 0-2.2-5.7 7.2 7.2 0 0 0-2.5-1.6c-1-.4-2.1-.6-3.2-.6h-4.5v15.9h4.5Zm19.2-21.1h19.8v5.2h-14.1V29h12.4v5.2h-12.4v5.5h14.3v5.2h-20V18.5Z" /></svg>